<svg width="18" height="18" viewBox="0 0 18 18" fill="none" xmlns="http://www.w3.org/2000/svg">
<path d="M2.29044 1.71077C2.03806 1.45839 1.62916 1.45839 1.37678 1.71077C1.12441 1.96315 1.12441 2.37205 1.37678 2.62442C1.68143 2.31978 1.98579 2.01542 2.29044 1.71077ZM15.5428 16.5229C15.8997 16.5229 16.189 16.2337 16.189 15.8768C16.189 13.938 16.189 11.9991 16.189 10.0604C16.189 9.70345 15.8997 9.41421 15.5428 9.41421C15.1859 9.41421 14.8966 9.70345 14.8966 10.0604C14.8966 11.7837 14.8966 13.5073 14.8966 15.2306C13.1733 15.2306 11.4497 15.2306 9.72639 15.2306C9.36946 15.2306 9.08023 15.5199 9.08023 15.8768C9.08023 16.2337 9.36946 16.5229 9.72639 16.5229C11.6652 16.5229 13.604 16.5229 15.5428 16.5229ZM1.37678 2.62442C5.94653 7.19416 10.5162 11.7639 15.086 16.3336C15.3906 16.029 15.695 15.7246 15.9996 15.42C11.4299 10.8502 6.86017 6.28051 2.29044 1.71077C1.98579 2.01542 1.68143 2.31978 1.37678 2.62442Z" fill="#7B3289"/>
</svg>
