<svg width="351" height="13" viewBox="0 0 351 13" fill="none" xmlns="http://www.w3.org/2000/svg">
<path d="M349.011 4.18527C319.227 -0.275238 291.12 9.6953 261.546 9.76687C254.991 9.76687 248.383 9.24211 242.458 7.90632C236.427 6.52285 232.442 4.08985 227.251 2.22932C223.003 0.726584 217.969 -0.0844224 212.568 0.225666C207.796 0.511903 203.444 1.51373 199.458 2.68253C191.593 4.94856 183.674 8.71735 173.921 9.14669C167.209 9.43292 161.965 7.33385 156.407 5.95038C149.957 4.32838 142.511 3.85133 135.221 3.73205C127.094 3.58895 118.913 3.85133 110.838 3.99443C102.185 4.11371 93.4807 4.25681 84.8284 4.37609C67.4713 4.63847 50.1667 4.90085 32.8099 5.13938C22.7417 5.28251 12.6735 5.44947 2.65783 5.59258C-0.698215 5.64029 -0.750652 8.0256 2.65783 7.97789L106.695 6.42743C114.98 6.30818 123.318 6.11736 131.603 6.09351C139.207 6.09351 146.915 6.4036 153.785 8.00174C159.763 9.40907 164.744 11.3412 171.719 11.532C176.49 11.6751 181.21 10.8402 185.3 9.83841C193.952 7.73936 201.084 4.13756 210.628 2.82566C215.819 2.11006 220.643 2.82563 224.734 4.35224C229.82 6.26047 233.858 8.5265 239.783 9.95769C251.581 12.82 265.793 12.4384 278.482 11.2934C293.376 9.93383 307.376 7.04764 322.425 5.85498C330.869 5.18709 339.468 5.25865 347.649 6.47514C350.847 6.95222 352.264 4.66233 349.063 4.18527H349.011Z" fill="black"/>
</svg>
