<svg xmlns="http://www.w3.org/2000/svg" viewBox="5960.5 4954 158.53759765625 13.763671875"> <path fill="#AFAFAF" stroke="none" fill-opacity="1" stroke-width="1" stroke-opacity="1" id="tSvgb99a20b22b" d="M 6117.208 4958.94917 C 6103.916 4954.572821 6091.372 4964.35524 6078.172 4964.42545 C 6075.247 4964.42545 6072.298 4963.91059 6069.654 4962.60002 C 6066.962 4961.24265 6065.184 4958.85555 6062.867 4957.03013 C 6060.9712 4955.555741 6058.7245 4954.760036 6056.314 4955.064274 C 6054.1844 4955.345109 6052.2419 4956.32803 6050.4633 4957.47477 C 6046.9529 4959.69805 6043.419 4963.39572 6039.0661 4963.81698 C 6036.0705 4964.09781 6033.7302 4962.03835 6031.2495 4960.68098 C 6028.3709 4959.08958 6025.0477 4958.62152 6021.7947 4958.50451 C 6018.1673 4958.36409 6014.5164 4958.62152 6010.9124 4958.76193 C 6007.0509 4958.87895 6003.166 4959.01938 5999.3045 4959.13639 C 5991.5581 4959.39382 5983.8352 4959.65126 5976.0888 4959.88529 C 5971.5955 4960.0257 5967.10209 4960.18952 5962.63213 4960.32993 C 5961.134346 4960.37674 5961.110943 4962.71703 5962.63213 4962.67023 C 5978.109253333333 4962.163166666666 5993.586376666667 4961.656103333334 6009.0635 4961.14904 C 6012.7612 4961.03202 6016.4823 4960.84481 6020.1799 4960.8214 C 6023.5733 4960.8214 6027.0136 4961.12564 6030.0794 4962.69364 C 6032.7473 4964.07441 6034.9706 4965.97 6038.0832 4966.1573 C 6040.2128 4966.2977 6042.3191 4965.4786 6044.1445 4964.49565 C 6048.006 4962.43619 6051.1888 4958.90236 6055.4482 4957.6152 C 6057.765 4956.91311 6059.9181 4957.61519 6061.744 4959.11298 C 6064.014 4960.98521 6065.816 4963.20849 6068.46 4964.61267 C 6073.726 4967.421 6080.068 4967.0466 6085.732 4965.9232 C 6092.378 4964.58927 6098.627 4961.75752 6105.343 4960.58737 C 6109.111 4959.93209 6112.949 4960.0023 6116.6 4961.19585 C 6118.028 4961.6639 6118.659 4959.41723 6117.232 4958.94917C 6117.224 4958.94917 6117.216 4958.94917 6117.208 4958.94917Z"></path> <defs></defs> </svg>