<svg width="171" height="68" viewBox="0 0 171 68" fill="none" xmlns="http://www.w3.org/2000/svg">
<path d="M169.486 12.3347C161.156 16.8154 153.355 22.233 146.226 28.4449C146.491 26.1028 146.756 23.7809 147.021 21.4387C147.102 20.7055 146.084 20.1148 145.493 20.5629C142.804 22.62 140.136 24.6771 137.448 26.7341C138.67 22.7626 139.444 18.6688 139.77 14.5343C139.831 13.6585 138.609 13.1697 138.038 13.8215C134.698 17.5079 131.337 21.2147 127.997 24.9011C127.834 23.9031 127.691 22.8848 127.528 21.8868C127.406 21.0721 126.327 20.9906 125.817 21.4387C123.129 23.842 120.461 26.2452 117.772 28.6486C119.748 22.7015 120.929 16.5099 121.255 10.2369C121.316 9.11669 119.911 8.99448 119.361 9.72769C106.448 26.7953 93.5545 43.8627 80.6414 60.9303L93.2286 19.565C93.5138 18.6077 92.2103 17.8134 91.5177 18.567C89.2569 21.0518 87.0164 23.5365 84.7556 26.001C85.2647 23.9031 85.7536 21.8053 86.2628 19.6872C86.5072 18.6484 85.326 18.0374 84.5519 18.6892L76.7918 25.2677C76.9547 21.9886 77.1177 18.7095 77.2807 15.4304C77.3214 14.5547 76.1399 14.0659 75.5493 14.7176C71.048 19.5242 66.5466 24.3308 62.0453 29.1577C63.7767 23.7606 64.7543 18.1596 64.958 12.4976C64.9785 11.6422 63.797 11.1127 63.2266 11.7848C58.705 16.9376 54.163 22.0905 49.6412 27.2432C51.902 18.8318 53.3889 10.2165 54.061 1.54018C54.1425 0.419992 52.6965 0.29779 52.1669 1.031C41.1072 15.8785 30.9638 31.4186 21.8186 47.5493C25.5257 35.0032 28.764 22.3349 31.5342 9.54438C31.7379 8.62787 30.5362 7.73172 29.8233 8.54639C20.0059 19.8705 11.4309 32.2129 4.24108 45.3293C6.56302 35.3494 8.02953 25.1862 8.64056 14.962C8.72204 13.6585 6.68524 13.6585 6.60378 14.962C5.8298 27.9968 3.63001 40.9095 0.0452483 53.4557C-0.260271 54.5555 1.38955 55.2888 1.89875 54.25C9.14975 39.5043 18.132 25.6546 28.6623 13.0475C25.383 27.5896 21.5131 42.0094 17.0322 56.2255C16.6859 57.3255 18.3561 58.0178 18.8856 57.0198C28.6216 38.9747 39.5795 21.622 51.678 5.06366C50.7614 13.8622 48.9896 22.5589 46.4029 31.052C46.1177 32.0092 47.4211 32.8238 48.1138 32.05C52.9815 26.5102 57.8495 20.9703 62.7379 15.4101C62.2286 21.5406 60.7419 27.5489 58.3994 33.2517C57.9922 34.2089 59.4384 34.942 60.1105 34.2497L75.1216 18.2004C74.9586 21.3369 74.8162 24.4734 74.6532 27.6099C74.6125 28.5671 75.7735 28.8728 76.3843 28.3227C78.7673 26.286 81.1708 24.2697 83.5538 22.233C82.9837 24.616 82.4133 26.999 81.8429 29.3614C81.619 30.2984 82.8207 31.1335 83.5538 30.3594C85.6721 28.0173 87.8107 25.6751 89.929 23.3329C85.6112 37.4878 81.3136 51.6634 76.9955 65.8183C76.6288 66.9998 78.1972 67.4681 78.8488 66.6126L118.913 13.6382C118.261 19.8908 116.733 26.0213 114.411 31.8665C114.004 32.885 115.43 33.4756 116.122 32.8645C119.34 29.9725 122.559 27.0803 125.797 24.2086C125.96 25.3084 126.143 26.3879 126.306 27.4877C126.428 28.2412 127.528 28.4654 128.017 27.9358C131.154 24.4938 134.27 21.0314 137.407 17.5893C136.857 21.622 135.838 25.5731 134.392 29.3819C134.087 30.1762 135.187 31.0722 135.879 30.5224C138.812 28.2617 141.766 26.0213 144.699 23.7606C144.413 26.1842 144.149 28.6079 143.863 31.0315C143.762 31.9887 145.004 32.2944 145.595 31.7443C153.131 24.8807 161.502 18.9947 170.464 14.1677C171.625 13.5363 170.586 11.7848 169.446 12.4161L169.486 12.3347Z" fill="#AFAFAF"/>
</svg>
