<svg width="131" height="25" viewBox="0 0 131 25" fill="none" xmlns="http://www.w3.org/2000/svg">
<path d="M129.228 1.92097C123.534 2.6053 117.988 3.59644 112.218 3.73205C107.106 4.06241 102.061 3.36024 97.0977 3.9974C95.8569 4.15668 96.0148 6.04477 96.8931 6.30439C104.578 8.57609 114.434 7.54369 123.044 5.87992C116.277 10.1929 109.725 13.7802 101.774 15.6387C91.7088 18.1874 81.3373 18.5413 71.2521 17.9274C47.1342 16.3223 23.5685 9.61934 1.44821 0.449978C0.789489 0.255304 0.212329 1.39993 1.01909 1.90153C23.5886 12.7819 48.2522 19.8094 73.1718 21.1254C88.4452 21.9577 107.722 20.5536 121.69 11.2668C119.157 14.9898 116.552 18.9548 114.386 23.0495C114.172 23.7753 114.907 24.5187 115.341 23.8579C120.928 17.8809 125.413 10.789 130.193 4.31059C130.918 3.47275 130.178 1.93866 129.008 1.85603L129.228 1.92097Z" fill="#51C9A3"/>
</svg>
