<svg xmlns="http://www.w3.org/2000/svg" viewBox="5772.5 5388 40 40.00048828125"> <mask x="null" y="null" width="null" height="null" style="undefined" id="tSvg15f254835f7"></mask> <path fill="#7B3289" stroke="none" fill-opacity="1" stroke-width="1" stroke-opacity="1" id="tSvgf1ffbd69d0" d="M 5806.5335 5398.8053 C 5809.2354 5398.8053 5811.4258 5396.61032 5811.4258 5393.90266 C 5811.4258 5391.19499 5809.2354 5389 5806.5335 5389 C 5803.8315 5389 5801.6411 5391.19499 5801.6411 5393.90266C 5801.6411 5396.61032 5803.8315 5398.8053 5806.5335 5398.8053Z"></path> <path fill="#7B3289" stroke="none" fill-opacity="1" stroke-width="1" stroke-opacity="1" id="tSvg1466bfbb3db" d="M 5800.1738 5416.4863 C 5801.2229 5416.4863 5802.272 5416.4863 5803.3211 5416.4863 C 5803.3211 5417.5376 5803.3211 5418.5889 5803.3211 5419.6402 C 5802.272 5419.6402 5801.2229 5419.6402 5800.1738 5419.6402C 5800.1738 5418.5889 5800.1738 5417.5376 5800.1738 5416.4863Z"></path> <path fill="#7B3289" stroke="none" fill-opacity="1" stroke-width="1" stroke-opacity="1" id="tSvg5e0227837c" d="M 5794.445 5399.3349 C 5795.0555 5398.7922 5795.8411 5398.4934 5796.657 5398.4934 C 5797.473 5398.4934 5798.2586 5398.7923 5798.869 5399.3349 C 5799.1614 5399.594833333334 5799.4538 5399.854766666666 5799.7462 5400.1147 C 5799.7462 5399.186043333333 5799.7462 5398.257386666667 5799.7462 5397.32873 C 5799.7462 5392.74269 5796.023 5389.01172 5791.4466 5389.01172 C 5787.4379 5389.01172 5784.0839 5391.87455 5783.3135 5395.66712 C 5784.5736 5397.58516 5786.7821 5401.3343 5787.7267 5405.3073C 5789.966133333333 5403.3165 5792.2055666666665 5401.3257 5794.445 5399.3349Z"></path> <path fill="#7B3289" stroke="none" fill-opacity="1" stroke-width="1" stroke-opacity="1" id="tSvg18b1d08280f" d="M 5810.3888 5424.7592 C 5809.877266666666 5424.7592 5809.365733333333 5424.7592 5808.8542 5424.7592 C 5808.8542 5421.227733333333 5808.8542 5417.696266666667 5808.8542 5414.1648 C 5809.095266666666 5414.3791 5809.336333333334 5414.5934 5809.5774 5414.8077 C 5809.7889 5414.9958 5810.0521 5415.0882 5810.3143 5415.0882 C 5810.621 5415.0882 5810.9264 5414.9616 5811.1459 5414.7136 C 5811.5531 5414.2536 5811.5111 5413.5498 5811.052 5413.1418 C 5809.966266666666 5412.1766333333335 5808.880533333333 5411.211466666667 5807.7948 5410.2463 C 5807.7948 5408.3228 5807.7948 5406.3993 5807.7948 5404.4758 C 5807.7948 5403.8609 5807.2973 5403.3624 5806.6837 5403.3624 C 5806.07 5403.3624 5805.5725 5403.8609 5805.5725 5404.4758 C 5805.5725 5405.7408 5805.5725 5407.0058 5805.5725 5408.2708 C 5802.8464 5405.847433333333 5800.1203 5403.4240666666665 5797.3942 5401.0007 C 5796.9735 5400.6267 5796.3403 5400.6267 5795.9196 5401.0007 C 5791.367026666667 5405.0477 5786.814453333333 5409.0947 5782.26188 5413.1417 C 5781.80284 5413.5498 5781.76083 5414.2535 5782.16799 5414.7135 C 5782.5752 5415.1736 5783.2776 5415.2156 5783.7365 5414.8075 C 5783.9775666666665 5414.593233333333 5784.218633333333 5414.378966666667 5784.4597 5414.1647 C 5784.4597 5417.696166666667 5784.4597 5421.227633333333 5784.4597 5424.7591 C 5783.26439 5424.7591 5782.06908 5424.7591 5780.87377 5424.7591 C 5780.87377 5423.1399 5780.87377 5421.5207 5780.87377 5419.9015 C 5781.34839 5419.7561 5781.80514 5419.5174 5782.23761 5419.1902 C 5782.23761 5418.535633333333 5782.23761 5417.881066666667 5782.23761 5417.2265 C 5781.57343 5417.0701 5780.96617 5416.7116 5780.50572 5416.1914 C 5779.28608 5414.8136 5779.41233 5412.6983 5780.78715 5411.476 C 5782.458866666667 5409.989933333333 5784.130583333334 5408.503866666667 5785.8023 5407.0178 C 5784.9581 5401.6211 5780.85039 5395.99424 5780.65638 5395.73107 C 5780.44686 5395.44696 5780.11525 5395.2793 5779.76271 5395.2793 C 5779.41018 5395.2793 5779.07857 5395.44696 5778.86905 5395.73107 C 5778.6527 5396.02445 5773.57147 5402.9839 5773.57147 5408.8592 C 5773.57147 5411.7267 5774.14214 5414.4402 5775.17838 5416.4996 C 5776.09246 5418.3162 5777.29947 5419.4881 5778.65159 5419.9015 C 5778.65159 5421.520733333334 5778.65159 5423.139966666667 5778.65159 5424.7592 C 5777.30477 5424.7592 5775.95795 5424.7592 5774.61113 5424.7592 C 5773.99749 5424.7592 5773.5 5425.2578 5773.5 5425.8727 C 5773.5 5426.4876 5773.99749 5426.9861 5774.61113 5427.0003 C 5786.02552 5427.0003 5797.43991 5427.0003 5808.8543 5427.0003 C 5809.365833333333 5427.0003 5809.877366666667 5427.0003 5810.3889 5427.0003 C 5811.0025 5426.9861 5811.5 5426.4876 5811.5 5425.8727C 5811.5 5425.2578 5811.0024 5424.7592 5810.3888 5424.7592Z M 5797.9516 5415.3747 C 5797.9516 5414.7598 5798.4491 5414.2613 5799.0627 5414.2613 C 5800.852533333334 5414.2613 5802.642366666667 5414.2613 5804.4322 5414.2613 C 5805.0459 5414.2613 5805.5434 5414.7598 5805.5434 5415.3747 C 5805.5434 5417.1683 5805.5434 5418.9619 5805.5434 5420.7555 C 5805.5434 5421.3704 5805.0459 5421.8689 5804.4322 5421.8689 C 5802.642366666667 5421.8689 5800.852533333334 5421.8689 5799.0627 5421.8689 C 5798.4491 5421.8689 5797.9516 5421.3704 5797.9516 5420.7555C 5797.9516 5418.9619 5797.9516 5417.1683 5797.9516 5415.3747Z M 5791.8673 5424.7592 C 5791.8673 5422.0022 5791.8673 5419.2452 5791.8673 5416.4882 C 5791.126533333333 5416.4882 5790.385766666666 5416.4882 5789.645 5416.4882 C 5789.645 5419.2452 5789.645 5422.0022 5789.645 5424.7592 C 5788.904266666666 5424.7592 5788.163533333333 5424.7592 5787.4228 5424.7592 C 5787.4228 5421.631033333333 5787.4228 5418.502866666667 5787.4228 5415.3747 C 5787.4228 5414.7598 5787.9203 5414.2613 5788.5339 5414.2613 C 5790.0154 5414.2613 5791.4969 5414.2613 5792.9784 5414.2613 C 5793.592 5414.2613 5794.0895 5414.7598 5794.0895 5415.3747 C 5794.0895 5418.502866666667 5794.0895 5421.631033333333 5794.0895 5424.7592C 5793.348766666667 5424.7592 5792.608033333333 5424.7592 5791.8673 5424.7592Z"></path> <defs></defs> </svg>