<svg width="43" height="42" viewBox="0 0 43 42" fill="none" xmlns="http://www.w3.org/2000/svg">
<path fill-rule="evenodd" clip-rule="evenodd" d="M40.3682 1.0113C32.5623 0.871364 23.6601 4.9513 18.0254 11.2802C12.6405 11.3818 7.39741 13.589 3.53697 17.4489C3.31204 17.6705 3.23213 18.0021 3.3305 18.302C3.43046 18.6035 3.69042 18.8217 4.00361 18.8667C6.14401 19.1733 8.28445 19.4796 10.4249 19.7862C10.1605 20.0822 9.89597 20.3785 9.63166 20.6745C9.33675 21.0043 9.35165 21.5058 9.66485 21.819C13.2343 25.388 16.8038 28.9567 20.3733 32.5257C20.5349 32.6872 20.748 32.7693 20.9629 32.7693C21.1611 32.7693 21.3597 32.6991 21.5179 32.5574C21.8139 32.2931 22.1098 32.0286 22.4058 31.7643C22.7124 33.9045 23.0188 36.0447 23.3254 38.1848C23.3704 38.4981 23.6169 38.7281 23.9151 38.8281C23.9917 38.8531 24.0721 38.8647 24.1538 38.8647C24.3903 38.8647 24.6319 38.7612 24.7986 38.5963C28.6056 34.7896 30.8131 29.547 30.9147 24.1627C37.251 18.5169 41.3644 9.61928 41.1829 1.82442C41.1712 1.38122 40.813 1.023 40.3682 1.0113ZM32.691 15.3917C31.8796 16.203 30.8131 16.6094 29.7452 16.6094C28.6772 16.6094 27.6108 16.203 26.7994 15.3917C25.1766 13.7674 25.1766 11.1255 26.7994 9.50121C28.4238 7.87692 31.0665 7.87692 32.691 9.50121C34.3155 11.1255 34.3155 13.7691 32.691 15.3917Z" fill="#7B3289"/>
<path fill-rule="evenodd" clip-rule="evenodd" d="M5.74166 29.169C3.95894 30.9516 1.51146 39.0049 1.23825 39.9162C1.14998 40.2094 1.23126 40.5274 1.44619 40.744C1.60614 40.9039 1.8181 40.989 2.03633 40.989C2.1163 40.989 2.19602 40.9772 2.276 40.9538C3.1874 40.6806 11.2417 38.2335 13.0244 36.4509C15.0321 34.4435 15.0321 31.1765 13.0244 29.169C11.0151 27.1616 7.7493 27.1633 5.74166 29.169Z" fill="#7B3289"/>
</svg>
