<svg width="42" height="36" viewBox="0 0 42 36" fill="none" xmlns="http://www.w3.org/2000/svg">
<path d="M31.4619 34.926C35.3952 34.926 38.5835 31.7365 38.5835 27.8026C38.5835 23.8686 35.3952 20.6797 31.4619 20.6797C27.5286 20.6797 24.3398 23.8686 24.3398 27.8026C24.3398 31.7365 27.5286 34.926 31.4619 34.926Z" fill="#7B3289"/>
<path fill-rule="evenodd" clip-rule="evenodd" d="M25.9957 26.4313C22.7375 25.6165 19.3258 25.6444 16.0823 26.5099C16.0689 26.5139 16.0625 26.5151 16.0625 26.5151C16.2915 27.373 16.5206 28.2312 16.7496 29.0891C16.7496 29.0891 16.756 29.0866 16.7693 29.0839C19.5774 28.3342 22.5296 28.3103 25.3497 29.0147C25.5649 28.1537 25.7804 27.2924 25.9957 26.4313Z" fill="#7B3289"/>
<path d="M10.6177 34.926C14.5509 34.926 17.7397 31.7365 17.7397 27.8026C17.7397 23.8686 14.5509 20.6797 10.6177 20.6797C6.68439 20.6797 3.49609 23.8686 3.49609 27.8026C3.49609 31.7365 6.68439 34.926 10.6177 34.926Z" fill="#7B3289"/>
<path fill-rule="evenodd" clip-rule="evenodd" d="M21.0385 3.23557C23.1293 2.59149 25.2205 1.94717 27.3113 1.30309C28.6987 0.874288 30.2016 1.03292 31.4705 1.74004C32.7392 2.44716 33.6649 3.64269 34.0324 5.04894C35.0128 8.80735 35.9926 12.566 36.973 16.3245C37.0835 16.7479 36.9783 17.1992 36.6921 17.5308C36.4058 17.8624 35.9761 18.0314 35.5407 17.9849C25.9011 16.9382 16.1764 16.9382 6.53692 17.9849C6.10288 18.0314 5.67118 17.8624 5.38493 17.5308C5.1 17.1992 4.99513 16.7479 5.10564 16.3245C5.10564 16.3245 6.8631 9.58591 8.04674 5.04894C8.41288 3.64269 9.33823 2.44716 10.6071 1.74004C11.8759 1.03292 13.3792 0.874288 14.7678 1.30309C16.8582 1.94717 18.9482 2.59149 21.0385 3.23557Z" fill="#7B3289"/>
<path fill-rule="evenodd" clip-rule="evenodd" d="M39.754 15.8114C39.754 15.8114 38.8834 15.7051 37.5213 15.5373C26.5769 14.1936 15.5089 14.1909 4.56329 15.5279C3.14932 15.7011 2.2411 15.8114 2.2411 15.8114C1.51148 15.9006 0.99106 16.5652 1.08027 17.295C1.16947 18.0248 1.83394 18.5438 2.56356 18.4545C2.56356 18.4545 3.47148 18.3441 4.88679 18.171C15.6167 16.8606 26.4668 16.8636 37.1967 18.1819C38.5601 18.3483 39.4295 18.4545 39.4295 18.4545C40.1591 18.545 40.8235 18.0258 40.9128 17.296C41.0033 16.5663 40.4836 15.902 39.754 15.8114Z" fill="#7B3289"/>
</svg>
