<svg xmlns="http://www.w3.org/2000/svg" viewBox="5421.4375 5090.08203125 40.12353515625 34.1513671875"> <path fill="#7B3289" stroke="none" fill-opacity="1" stroke-width="1" stroke-opacity="1" id="tSvg1389f6ab6f8" d="M 5427.9375 5107.7555 C 5427.91306 5107.7014 5427.87351 5107.6555 5427.82362 5107.6233 C 5427.77373 5107.5912 5427.71561 5107.5741 5427.65625 5107.5742 C 5426.020833333333 5107.5742 5424.385416666667 5107.5742 5422.75 5107.5742 C 5422.66712 5107.5742 5422.58763 5107.6071 5422.52903 5107.6657 C 5422.470424 5107.7244 5422.4375 5107.8038 5422.4375 5107.8867 C 5422.4375 5111.953366666667 5422.4375 5116.020033333333 5422.4375 5120.0867 C 5422.4375 5120.1696 5422.470424 5120.2491 5422.52903 5120.3077 C 5422.58763 5120.3663 5422.66712 5120.3992 5422.75 5120.3992 C 5424.385416666667 5120.3992 5426.020833333333 5120.3992 5427.65625 5120.3992 C 5427.72112 5120.3983 5427.78412 5120.3774 5427.83668 5120.3394 C 5427.88924 5120.3013 5427.92881 5120.248 5427.95 5120.1867C 5429.64375 5115.3805 5429.6375 5111.3117 5427.9375 5107.7555Z"></path> <path fill="#7B3289" stroke="none" fill-opacity="1" stroke-width="1" stroke-opacity="1" id="tSvg7186116a32" d="M 5441.3687 5103.9179 C 5442.359966666667 5102.9266333333335 5443.351233333334 5101.935366666667 5444.3425 5100.9441 C 5442.5616666666665 5099.163906666667 5440.780833333333 5097.383713333334 5439 5095.60352 C 5438.0104 5096.593713333334 5437.0208 5097.583906666667 5436.0312 5098.5741 C 5435.6804 5098.9246 5435.4019 5099.3407 5435.2119 5099.7988 C 5435.0218 5100.2569 5434.9239 5100.7479 5434.9236 5101.2438 C 5434.9233 5101.7397 5435.0207 5102.2309 5435.2102 5102.6891 C 5435.3997 5103.1474 5435.6776 5103.5639 5436.0281 5103.9148 C 5436.3786 5104.2656 5436.7947 5104.5441 5437.2528 5104.7341 C 5437.7108 5104.9242 5438.2018 5105.0221 5438.6978 5105.0224 C 5439.1937 5105.0227 5439.6848 5104.9253 5440.1431 5104.7358C 5440.6014 5104.5463 5441.0179 5104.2684 5441.3687 5103.9179Z"></path> <path fill="#7B3289" stroke="none" fill-opacity="1" stroke-width="1" stroke-opacity="1" id="tSvg9e17616ee5" d="M 5447.7562 5097.5303 C 5448.4649 5096.8225 5448.8633 5095.8622 5448.8639 5094.86063 C 5448.8645 5093.85907 5448.4671 5092.8983 5447.7594 5092.18967 C 5447.0516 5091.48105 5446.0912 5091.08262 5445.0897 5091.08203 C 5444.0881 5091.08145 5443.1274 5091.47875 5442.4187 5092.18655 C 5441.427033333333 5093.178216666666 5440.435366666667 5094.169883333333 5439.4437 5095.16155 C 5441.223933333334 5096.941766666667 5443.004166666667 5098.721983333333 5444.7844 5100.5022C 5445.775 5099.511566666667 5446.7656 5098.520933333333 5447.7562 5097.5303Z"></path> <path fill="#7B3289" stroke="none" fill-opacity="1" stroke-width="1" stroke-opacity="1" id="tSvg63a8a8ef42" d="M 5460.225 5107.2431 C 5459.9604 5106.8306 5459.5616 5106.5221 5459.0959 5106.3695 C 5458.6302 5106.2169 5458.1261 5106.2297 5457.6687 5106.4056 C 5453.4437 5108.0327 5449.2187 5109.6598 5444.9937 5111.2869 C 5445.0936 5111.7694 5445.0846 5112.268 5444.9676 5112.7466 C 5444.8505 5113.2252 5444.6283 5113.6716 5444.317 5114.0535 C 5444.0057 5114.4354 5443.6133 5114.7432 5443.1681 5114.9543 C 5442.723 5115.1655 5442.2364 5115.2749 5441.7437 5115.2744 C 5438.295793333334 5115.2744 5434.847886666666 5115.2744 5431.39998 5115.2744 C 5431.3171 5115.2744 5431.23761 5115.2415 5431.179 5115.1829 C 5431.1204 5115.1243 5431.08748 5115.0448 5431.08748 5114.9619 C 5431.08748 5114.879 5431.1204 5114.7995 5431.179 5114.7409 C 5431.23761 5114.6823 5431.3171 5114.6494 5431.39998 5114.6494 C 5434.847886666666 5114.6494 5438.295793333334 5114.6494 5441.7437 5114.6494 C 5442.459 5114.6494 5443.1449 5114.3653 5443.6507 5113.8595 C 5444.1565 5113.3537 5444.4406 5112.6678 5444.4406 5111.9525 C 5444.4406 5111.2373 5444.1565 5110.5513 5443.6507 5110.0455 C 5443.1449 5109.5398 5442.459 5109.2556 5441.7437 5109.2556 C 5439.147866666666 5109.2556 5436.552033333333 5109.2556 5433.9562 5109.2556 C 5432.1541 5109.1303 5430.38585 5108.7036 5428.72498 5107.9931 C 5429.63289 5110.1248 5430.00002 5112.4479 5429.79373 5114.7556 C 5429.63045 5116.7528 5429.17563 5118.7153 5428.44373 5120.5806 C 5431.962486666666 5121.3785333333335 5435.481243333334 5122.176466666667 5439 5122.9744 C 5440.4373 5123.3219 5441.9371 5123.32 5443.3735 5122.9688 C 5444.81 5122.6175 5446.1414 5121.9272 5447.2562 5120.9556 C 5451.447866666666 5117.301433333333 5455.639533333333 5113.647266666667 5459.8312 5109.9931 C 5460.216 5109.6583 5460.4673999999995 5109.1963 5460.5397 5108.6914C 5460.612 5108.1865 5460.5003 5107.6725 5460.225 5107.2431Z"></path> <defs> </defs> </svg>