<svg width="181" height="181" viewBox="0 0 181 181" fill="none" xmlns="http://www.w3.org/2000/svg">
<path d="M161.785 90.1972C161.785 50.9872 129.999 19.2012 90.789 19.2012C51.579 19.2012 19.793 50.9872 19.793 90.1972C19.793 129.407 51.579 161.193 90.789 161.193C129.999 161.193 161.785 129.407 161.785 90.1972Z" fill="#D9E3EA"/>
<g opacity="0.6">
<path d="M88.0699 79.6528V75.0553C88.0699 75.0553 73.8939 57.8301 58.9517 65.4769C44.0253 73.1396 42.4928 90.7638 56.2697 102.258C70.0626 113.751 82.706 127.912 82.706 127.912C82.706 127.912 90.3687 119.1 87.3036 112.203C84.2386 105.307 64.6987 96.8779 61.2505 85.3999C57.8023 73.9058 71.212 61.6455 88.054 79.6528H88.0699Z" fill="#F2F6F9"/>
<path d="M92.5078 79.6528V75.0552C92.5078 75.0552 106.684 57.8142 121.61 65.4768C136.552 73.1396 138.085 90.7637 124.292 102.242C110.5 113.735 97.8557 127.896 97.8557 127.896C97.8557 127.896 90.193 119.084 93.2581 112.188C96.3232 105.291 115.863 96.862 119.311 85.3839C122.76 73.8899 109.35 61.6295 92.5078 79.6368V79.6528Z" fill="#F2F6F9"/>
</g>
<path d="M123.4 91.1633C122.299 91.1633 121.341 91.8657 120.974 92.8555H97.0117C96.7722 92.8555 96.5647 92.9991 96.4848 93.2227L95.2557 96.5751L92.0947 84.3627C92.031 84.1232 91.8074 83.9476 91.552 83.9316C91.2966 83.9316 91.0731 84.0913 90.9932 84.3467L88.1198 94.3721L86.4276 90.5727C86.3318 90.3652 86.1243 90.2374 85.8848 90.2374C85.6613 90.2374 85.4537 90.3971 85.3739 90.6206L83.2188 96.7028L80.473 86.7413C80.4092 86.5019 80.1856 86.3262 79.9462 86.3262H79.9302C79.6907 86.3262 79.4673 86.4859 79.3875 86.7094L76.5778 95.0585L73.6245 89.2636C73.5287 89.0721 73.3371 88.9603 73.1136 88.9603C72.8901 88.9603 72.6985 89.0881 72.6027 89.2795L70.7988 93.063H60.3265C60.0232 91.9615 59.0175 91.1633 57.8362 91.1633C56.6548 91.1633 55.25 92.3287 55.25 93.7495C55.25 95.1703 56.4153 96.3357 57.8362 96.3357C59.2569 96.3357 60.1668 95.4097 60.3903 94.1965H71.166C71.3895 94.1965 71.5811 94.0688 71.6769 93.8772L73.1296 90.8122L76.1627 96.7826C76.2745 96.9902 76.482 97.1019 76.7055 97.0859C76.929 97.07 77.1206 96.9103 77.2004 96.7028L79.8504 88.8167L82.5962 98.7302C82.6601 98.9697 82.8676 99.1293 83.1231 99.1453C83.1231 99.1453 83.1231 99.1453 83.139 99.1453C83.3784 99.1453 83.586 99.0016 83.6658 98.7622L85.9487 92.3128L87.7047 96.2239C87.8005 96.4474 88.024 96.5751 88.2635 96.5591C88.5029 96.5431 88.6944 96.3836 88.7742 96.1441L91.5041 86.6296L94.5851 98.5865C94.649 98.826 94.8565 99.0016 95.096 99.0176C95.3355 99.0176 95.5749 98.8739 95.6548 98.6504L97.3789 93.973H120.798C120.91 95.298 122.027 96.3357 123.368 96.3357C124.709 96.3357 125.955 95.1703 125.955 93.7495C125.955 92.3287 124.789 91.1633 123.368 91.1633H123.4ZM57.8362 95.2182C57.0379 95.2182 56.3834 94.5637 56.3834 93.7655C56.3834 92.9672 57.0379 92.3128 57.8362 92.3128C58.6343 92.3128 59.2889 92.9672 59.2889 93.7655C59.2889 94.5637 58.6343 95.2182 57.8362 95.2182ZM123.4 95.2182C122.602 95.2182 121.948 94.5637 121.948 93.7655C121.948 92.9672 122.602 92.3128 123.4 92.3128C124.199 92.3128 124.853 92.9672 124.853 93.7655C124.853 94.5637 124.199 95.2182 123.4 95.2182Z" fill="#7B3289"/>
<path d="M118.404 62.4583H110.998V55.051C110.998 54.0294 110.167 53.1992 109.146 53.1992H105.314C104.292 53.1992 103.462 54.0294 103.462 55.051V62.4583H96.0549C95.0332 62.4583 94.2031 63.2885 94.2031 64.3101V68.1415C94.2031 69.1631 95.0332 69.9933 96.0549 69.9933H103.462V77.4006C103.462 78.4222 104.292 79.2524 105.314 79.2524H109.146C110.167 79.2524 110.998 78.4222 110.998 77.4006V69.9933H118.404C119.426 69.9933 120.256 69.1631 120.256 68.1415V64.3101C120.256 63.2885 119.426 62.4583 118.404 62.4583Z" fill="#7B3289"/>
</svg>
