<?xml version="1.0" encoding="UTF-8"?> <svg xmlns="http://www.w3.org/2000/svg" width="201" height="62" viewBox="0 0 201 62" fill="none"><g clip-path="url(#clip0_384_3929)"><path d="M34.2593 21.9514V18.136C34.2593 18.136 22.4952 3.84158 10.0952 10.1873C-2.29154 16.5463 -3.56334 31.1719 7.86957 40.7104C19.3157 50.2488 29.808 61.9997 29.808 61.9997C29.808 61.9997 36.167 54.6869 33.6234 48.9638C31.0798 43.2407 14.8644 36.2459 12.0029 26.7206C9.14136 17.1822 20.2696 7.00782 34.2461 21.9514H34.2593Z" fill="#51C9A3"></path><path d="M37.9419 21.9514V18.136C37.9419 18.136 49.706 3.82829 62.0928 10.1873C74.4927 16.5462 75.7645 31.1719 64.3184 40.6971C52.8722 50.2356 42.3799 61.9864 42.3799 61.9864C42.3799 61.9864 36.021 54.6736 38.5645 48.9505C41.1081 43.2274 57.3235 36.2326 60.1851 26.7074C63.0466 17.1689 51.9184 6.99453 37.9419 21.9381V21.9514Z" fill="#51C9A3"></path><path d="M63.5766 31.5037C62.6625 31.5037 61.8676 32.0866 61.5629 32.908H41.6779C41.4792 32.908 41.307 33.0272 41.2407 33.2127L40.2206 35.9948L37.5976 25.8601C37.5446 25.6614 37.3591 25.5157 37.1471 25.5024C36.9352 25.5024 36.7497 25.6349 36.6835 25.8469L34.2988 34.1665L32.8946 31.0136C32.8151 30.8413 32.6429 30.7353 32.4441 30.7353C32.2587 30.7353 32.0864 30.8678 32.0202 31.0533L30.2317 36.1007L27.9531 27.8341C27.9001 27.6353 27.7146 27.4896 27.5159 27.4896H27.5027C27.304 27.4896 27.1185 27.6221 27.0523 27.8076L24.7206 34.7362L22.2698 29.9272C22.1903 29.7683 22.0313 29.6755 21.8458 29.6755C21.6604 29.6755 21.5014 29.7815 21.4219 29.9405L19.9249 33.0802H11.2343C10.9826 32.1661 10.148 31.5037 9.16764 31.5037C8.1873 31.5037 7.02148 32.4708 7.02148 33.6499C7.02148 34.8289 7.98858 35.796 9.16764 35.796C10.3467 35.796 11.1018 35.0277 11.2873 34.0208H20.2296C20.4151 34.0208 20.574 33.9148 20.6535 33.7559L21.8591 31.2123L24.3762 36.167C24.4689 36.3392 24.6411 36.4319 24.8266 36.4187C25.0121 36.4054 25.1711 36.273 25.2373 36.1007L27.4364 29.5563L29.7151 37.7832C29.7681 37.9819 29.9403 38.1144 30.1523 38.1277C30.1523 38.1277 30.1523 38.1277 30.1655 38.1277C30.3642 38.1277 30.5364 38.0084 30.6027 37.8097L32.4971 32.4576L33.9544 35.7033C34.0339 35.8888 34.2193 35.9947 34.4181 35.9815C34.6168 35.9683 34.7758 35.8358 34.842 35.6371L37.1074 27.7413L39.6642 37.664C39.7172 37.8627 39.8894 38.0084 40.0882 38.0217C40.2869 38.0217 40.4856 37.9024 40.5518 37.717L41.9826 33.8353H61.4172C61.5099 34.9349 62.4373 35.796 63.5501 35.796C64.6629 35.796 65.6963 34.8289 65.6963 33.6499C65.6963 32.4708 64.7292 31.5037 63.5501 31.5037H63.5766ZM9.16764 34.8687C8.50524 34.8687 7.96208 34.3255 7.96208 33.6631C7.96208 33.0007 8.50524 32.4576 9.16764 32.4576C9.83003 32.4576 10.3732 33.0007 10.3732 33.6631C10.3732 34.3255 9.83003 34.8687 9.16764 34.8687ZM63.5766 34.8687C62.9142 34.8687 62.3711 34.3255 62.3711 33.6631C62.3711 33.0007 62.9142 32.4576 63.5766 32.4576C64.239 32.4576 64.7822 33.0007 64.7822 33.6631C64.7822 34.3255 64.239 34.8687 63.5766 34.8687Z" fill="#F2F6F9"></path><path d="M59.43 7.68376H53.2829V1.53675C53.2829 0.688889 52.5941 0 51.7462 0H48.5667C47.7188 0 47.03 0.688889 47.03 1.53675V7.68376H40.8829C40.0351 7.68376 39.3462 8.37265 39.3462 9.22051V12.4C39.3462 13.2479 40.0351 13.9368 40.8829 13.9368H47.03V20.0838C47.03 20.9316 47.7188 21.6205 48.5667 21.6205H51.7462C52.5941 21.6205 53.2829 20.9316 53.2829 20.0838V13.9368H59.43C60.2778 13.9368 60.9667 13.2479 60.9667 12.4V9.22051C60.9667 8.37265 60.2778 7.68376 59.43 7.68376Z" fill="#F2F6F9"></path><path d="M133.976 27.6748H131.061L132.492 22.6008L133.976 27.6748ZM123.921 22.1902H114.078V25.1842C114.078 27.2906 113.826 28.8273 113.018 30.1389H112.064V34.9611H115.773V32.497H121.337V34.9611H125.06V30.1389H123.921V22.1902ZM117.787 24.5483H119.854V30.1521H116.82C117.575 29.0393 117.774 27.1714 117.774 25.5021V24.5483H117.787ZM103.837 28.2709H111.6C111.6 24.3893 109.375 21.8987 105.586 21.8987C101.797 21.8987 99.7832 24.0581 99.7832 27.4496C99.7832 30.841 102.314 32.8017 105.599 32.8017C108.884 32.8017 110.567 31.9538 111.269 29.397H107.374C107.083 30.0064 106.5 30.2978 105.851 30.2978C104.778 30.2978 103.837 29.4897 103.837 28.2709ZM107.533 26.191H103.837C103.837 25.0914 104.526 24.4025 105.731 24.4025C106.937 24.4025 107.533 25.2504 107.533 26.191ZM87.7541 18.3218H82.1768V32.497H86.3233V27.7013C86.3233 26.5619 86.1644 24.6543 86.0319 23.409H86.0716L88.6285 32.5102H91.8345L94.3913 23.409H94.431C94.2588 25.0384 94.1396 26.5752 94.1396 28.1782V32.5102H98.2862V18.335H92.7088L90.2315 27.1714L87.7541 18.335V18.3218ZM139.884 32.444L140.322 32.5632C140.785 32.656 141.275 32.6825 141.872 32.6825C144.097 32.6825 145.422 31.3312 145.422 27.741V25.1842H147.714V32.497H151.781V22.1769H141.633V26.5752C141.633 29.079 141.461 29.8077 140.6 29.8077C139.739 29.8077 140.163 29.7812 139.871 29.7282V32.391L134.877 18.335H130.187L125.14 32.5102H129.657L130.187 30.6423H134.784L135.327 32.5102H139.924L139.898 32.4572L139.884 32.444Z" fill="#F2F6F9"></path><path d="M196.744 26.125H200.864C200.573 23.078 197.989 21.8989 195.26 21.8989C192.531 21.8989 189.418 23.9258 189.418 27.4498C189.418 30.9737 191.948 32.8019 195.26 32.8019C198.572 32.8019 200.586 31.6361 200.944 28.5096H196.837C196.718 29.3177 196.307 30.0464 195.26 30.0464C194.214 30.0464 193.485 29.0263 193.485 27.4763C193.485 25.9263 193.737 24.6545 195.26 24.6545C196.784 24.6545 196.744 25.3169 196.744 26.125ZM181.165 25.6348V22.1771H177.098V32.4972H181.165V28.6156H184.172V32.4972H188.239V22.1771H184.172V25.6348H181.165ZM170.606 28.8408H171.6V32.4972H175.508V22.1771H169.348C166.34 22.1771 164.87 23.3959 164.87 25.5023C164.87 27.6088 165.625 27.94 167.175 28.4964L164.512 32.4972H168.553L170.58 28.8408H170.606ZM171.6 24.5485V26.4827H170.209C169.215 26.4827 168.778 26.284 168.778 25.5156C168.778 24.7472 169.321 24.5485 170.301 24.5485H171.6ZM157.266 25.807V22.1771H153.357V32.4972H159.518C162.525 32.4972 163.995 31.2784 163.995 29.172C163.995 27.0656 162.538 25.807 159.544 25.807H157.279H157.266ZM157.252 30.1391V28.1652H158.551C159.544 28.1652 160.074 28.3904 160.074 29.172C160.074 29.9536 159.531 30.1391 158.551 30.1391H157.252Z" fill="#F2F6F9"></path><path d="M152.933 46.1555V43.0025H148.866V53.3226H152.933V50.4213L153.688 49.6529L155.874 53.3094H160.763L156.484 46.9901L160.273 42.9893H155.53L152.933 46.1423V46.1555ZM139.725 48.6594V43.0025H135.817V53.3226H139.884L143.382 47.8645V53.3226H147.29V43.0025H143.209L139.725 48.6594ZM127.153 46.447V42.9893H123.086V53.3094H127.153V49.4277H130.16V53.3094H134.227V42.9893H130.16V46.447H127.153ZM113.945 48.6594V43.0025H110.037V53.3226H114.104L117.601 47.8645V53.3226H121.509V43.0025H117.429L113.945 48.6594ZM96.5769 53.2696L97.0009 53.3888C97.4645 53.4816 97.968 53.5081 98.5509 53.5081C100.777 53.5081 102.101 52.1568 102.101 48.5666V46.0098H104.38V53.3226H108.447V43.0025H98.2992V47.4008C98.2992 49.9047 98.1269 50.6333 97.2658 50.6333C96.4047 50.6333 96.8286 50.6068 96.5372 50.5538V53.2431L90.9068 44.4995L96.047 39.1606H90.6286L86.588 43.7444V39.1606H81.9778V53.3359H86.588V48.8448L87.6744 47.679L91.0526 53.3226H96.5769L96.5372 53.2696H96.5769Z" fill="#F2F6F9"></path></g><defs><clipPath id="clip0_384_3929"><rect width="200.944" height="62" fill="white"></rect></clipPath></defs></svg> 