<svg xmlns="http://www.w3.org/2000/svg" viewBox="0 0 229 32.052734375" fill="none"> <path d="M226.674 0.0009719725C202.43625 4.367475 178.1615 8.73395 153.92375 13.063425C129.908 17.392925 105.92925 22.018475 81.8765 25.941C68.888 28.05025 55.4185 29.41925 42.43 27.088C71.33025 20.834325 100.5635 16.2088 129.982 13.21145C136.08775 12.6564 142.23025 12.138325 148.373 11.62025C150.55625 11.43525 152.7765 11.250225 154.95975 11.0652C157.328 10.880175 157.365 7.17975 154.95975 7.364775C146.37475 7.95685 137.78975 8.733925 129.242 9.585025C88.90725 13.17445 48.60975 17.096925 8.3491 21.463425C6.16585 21.68545 3.9456 21.94445 1.7623525 22.166475C-0.5689125 22.4255 -0.6059175 26.126 1.7623525 25.867C21.00455 23.75765 40.24675 21.75945 59.489 19.835225C50.867 21.500425 42.282 23.2766 33.697 25.23775C31.84675 25.645 32.03175 28.30925 33.697 28.79025C55.9365 35.636 79.54525 30.1965 101.78475 26.2C126.0225 21.833425 150.29725 17.466975 174.535 13.137475C192.26 9.9551 209.948 6.772725 227.67325 3.590375C230.0045 3.183325 229.00525 -0.4060825 226.674 0.03796725V0.0009719725Z" fill="#AFAFAF"></path> </svg>