<svg width="15" height="21" viewBox="0 0 15 21" fill="none" xmlns="http://www.w3.org/2000/svg">
<path d="M4.5 0C3.5 0 2.5 0 1.5 0C0.672 0 0 0.672 0 1.5C0 7.5 0 13.5 0 19.5C0 20.328 0.672 21 1.5 21C2.5 21 3.5 21 4.5 21C5.3288 21 6 20.3288 6 19.5C6 13.5 6 7.5 6 1.5C6 0.672 5.3287 0 4.5 0ZM13.5 0C12.5 0 11.5 0 10.5 0C9.6713 0 9 0.672 9 1.5C9 7.5 9 13.5 9 19.5C9 20.328 9.6713 21 10.5 21C11.5 21 12.5 21 13.5 21C14.3288 21 15 20.3288 15 19.5C15 13.5 15 7.5 15 1.5C15 0.672 14.3288 0 13.5 0Z" fill="white"/>
</svg>
