<svg width="39" height="39" viewBox="0 0 39 39" fill="none" xmlns="http://www.w3.org/2000/svg">
<path d="M37.8817 28.6059L32.4415 23.1664C30.4984 21.2237 27.1955 22.0009 26.4183 24.5264C25.8355 26.2748 23.8924 27.2461 22.1437 26.8575C18.2578 25.8863 13.0118 20.8352 12.0404 16.7556C11.4575 15.0071 12.6232 13.0644 14.3719 12.4817C16.8977 11.7046 17.6749 8.40207 15.732 6.45941L10.2917 1.01991C8.73732 -0.339969 6.40575 -0.339969 5.04568 1.01991L1.35406 4.711C-2.33756 8.59635 1.74266 18.8925 10.8746 28.0232C20.0065 37.1536 30.3042 41.4278 34.1902 37.5421L37.8817 33.8512C39.242 32.2969 39.242 29.9658 37.8817 28.6059Z" fill="#51C9A3"/>
</svg>
