<svg xmlns="http://www.w3.org/2000/svg" viewBox="5394.5 5076.9638671875 18 14.0732421875"> <path fill="#7B3289" stroke="none" fill-opacity="1" stroke-width="1" stroke-opacity="1" id="tSvg1276b0de027" d="M 5403.50017 5077.963867 C 5399.08189 5077.963867 5395.5 5081.57979 5395.5 5086.04031 C 5395.5 5088.4589 5396.54376 5090.0363 5396.54376 5090.0363 C 5401.18024 5090.036533333333 5405.81672 5090.036766666667 5410.4532 5090.037 C 5410.4532 5090.037 5411.5 5088.3131 5411.5 5086.04015C 5411.5 5081.57979 5407.9181 5077.963867 5403.50017 5077.963867Z M 5409.8665 5089.0531 C 5405.630726666666 5089.051233333334 5401.394953333333 5089.049366666667 5397.15918 5089.0475 C 5397.15918 5089.0475 5396.482062 5087.7652 5396.482062 5086.01483 C 5396.482062 5082.10536 5399.63613 5078.93587 5403.52699 5078.93587 C 5407.4177 5078.93587 5410.5719 5082.10519 5410.5719 5086.01483C 5410.5721 5087.785 5409.8665 5089.0531 5409.8665 5089.0531Z"></path> <path fill="#7B3289" stroke="none" fill-opacity="1" stroke-width="1" stroke-opacity="1" id="tSvg1575c5cb050" d="M 5405.761 5080.10814 C 5405.727533333334 5080.1080833333335 5405.694066666667 5080.108026666667 5405.6606 5080.10797 C 5404.949273333334 5081.501823333333 5404.237946666667 5082.895676666667 5403.52662 5084.28953 C 5402.78971 5082.883776666667 5402.0528 5081.478023333333 5401.31589 5080.07227 C 5400.30695 5082.611813333333 5399.29801 5085.151356666666 5398.28907 5087.6909 C 5398.0283266666665 5087.6909 5397.767583333333 5087.6909 5397.50684 5087.6909 C 5397.50684 5087.8948666666665 5397.50684 5088.0988333333335 5397.50684 5088.3028 C 5398.935283333333 5088.3028 5400.3637266666665 5088.3028 5401.79217 5088.3028 C 5401.79217 5088.0988333333335 5401.79217 5087.8948666666665 5401.79217 5087.6909 C 5401.508736666667 5087.6909 5401.225303333334 5087.6909 5400.94187 5087.6909 C 5401.225303333334 5086.8972066666665 5401.508736666667 5086.1035133333335 5401.79217 5085.30982 C 5402.37032 5086.30748 5402.94847 5087.30514 5403.52662 5088.3028 C 5404.082136666667 5087.30514 5404.637653333333 5086.30748 5405.19317 5085.30982 C 5405.476546666667 5086.1035133333335 5405.759923333333 5086.8972066666665 5406.0433 5087.6909 C 5405.759923333333 5087.6909 5405.476546666667 5087.6909 5405.19317 5087.6909 C 5405.19317 5087.8948666666665 5405.19317 5088.0988333333335 5405.19317 5088.3028 C 5406.610213333333 5088.3028 5408.027256666666 5088.3028 5409.4443 5088.3028 C 5409.4443 5088.0988333333335 5409.4443 5087.8948666666665 5409.4443 5087.6909 C 5409.1988 5087.6909 5408.9533 5087.6909 5408.7078 5087.6909C 5407.725533333333 5085.1633133333335 5406.743266666666 5082.635726666666 5405.761 5080.10814Z"></path> <defs></defs> </svg>