<svg xmlns="http://www.w3.org/2000/svg" viewBox="0 0 194 37" fill="none"> <path d="M192.02175 25.29675C185.6765 29.668 178.518 33.293 170.70875 34.11925C164.0655 34.81225 157.23225 33.05325 152.0805 28.76175C151.755 28.49525 151.45675 28.22875 151.1585 27.9355C153.59875 26.52275 155.90375 24.896825 158.04575 23.05765C160.3235 21.0852 162.33 18.81955 164.0925 16.393975C166.01775 13.7285 168.13275 10.449975 168.02425 7.064825C167.916 3.8396 165.17725 1.65394 162.35725 0.614405C159.6455 -0.3984725 156.446 -0.07864225 153.78875 0.987545C148.41975 3.119925 144.732 8.317575 143.62025 13.7818C142.59 18.8995 144.05425 23.457475 146.90125 27.1625C146.603 27.29575 146.30475 27.45575 146.0065 27.589C134.7265 32.68 120.4095 32.6 110.07825 25.40325C109.69875 25.13675 109.319 24.8435 108.9395 24.52365C109.72575 24.123825 110.51225 23.697375 111.2715 23.29755C114.471 21.538325 117.48075 19.379275 119.5145 16.314C121.3855 13.46195 122.03625 9.65035 120.6535 6.47845C119.56875 4.0262 117.34525 2.4269 114.7965 1.6539125C112.16625 0.8542725 109.319 1.174155 106.8245 2.2136875C104.05875 3.35985 102.21475 5.94535 101.1845 8.610825C99.15075 13.88845 100.91325 19.539225 104.384 23.75065C97.7135 26.76275 90.25675 28.7085 82.96275 27.29575C78.9225 26.496 75.072 24.28375 72.3335 21.191825C74.77375 19.006125 77.13275 16.6072 78.97675 13.915075C80.71225 11.356225 81.93225 8.157675 81.22725 5.092375C80.5495 2.027085 77.45825 0.29455 74.4485 0.34786C67.1815 0.4544775 64.741 9.117225 65.96125 14.847975C66.42225 17.007025 67.34425 19.05945 68.6185 20.871975C63.27675 25.29675 56.525 28.68175 49.3935 28.52175C44.72975 28.41525 40.06575 26.3095 36.73075 23.031C40.337 21.05855 43.401 18.126525 44.97375 14.448175C47.33275 8.904 42.94 1.1474875 36.2425 3.1999C29.9245 5.119025 28.56875 13.16875 30.52125 18.4997C30.98225 19.779125 31.60575 20.9786 32.365 22.071425C26.91475 24.0972 20.623975 23.99055 15.336425 21.618275C8.42195 18.52635 3.6225 11.809375 2.619225 4.479325C2.375175 2.773425 -0.227916 3.51975 0.016124325 5.199C0.8838225 11.569475 4.463075 17.4335 9.64215 21.3251C15.17375 25.48325 22.0611 26.896 28.867 25.7765C30.62975 25.48325 32.39225 24.976775 34.1275 24.28375C36.73075 27.05575 40.2015 29.10825 43.80775 30.281C50.3155 32.38675 57.3655 30.76075 63.24975 27.6955C65.74425 26.3895 68.07625 24.76355 70.27275 23.00435C72.469 25.43 75.289 27.349 78.1905 28.6285C85.2405 31.667 93.348 30.65425 100.42525 28.25525C102.43175 27.56225 104.41125 26.76275 106.33625 25.883C106.3905 25.93625 106.44475 25.98975 106.499 26.01625C115.881 34.46575 130.60475 35.452 142.29175 31.88025C144.515 31.18725 146.68425 30.3345 148.77225 29.29475C153.382 33.8795 160.24225 36.70475 166.61425 36.9715C176.32175 37.39775 185.6495 32.99975 193.4045 27.669C194.8145 26.68275 193.45875 24.390375 192.04875 25.3765L192.02175 25.29675ZM33.8565 19.352625C32.365 16.767125 31.84975 13.595225 32.66325 10.7165C33.44975 7.944425 36.134 4.87915 39.36075 5.625475C42.53325 6.3718 43.31975 10.3167 42.5875 12.9555C41.6385 16.28735 38.52025 18.7929 35.646 20.4988C35.402 20.658725 35.13075 20.792 34.88675 20.925275C34.50725 20.418825 34.18175 19.912375 33.8835 19.379275L33.8565 19.352625ZM69.83875 5.865375C71.46575 3.22655 75.83125 1.627265 78.02775 4.559275C79.98 7.17145 77.70225 11.036375 76.15675 13.2487C74.66525 15.381075 72.713 17.326875 70.7065 19.0861C69.92 17.886625 69.26925 16.58055 68.8355 15.1945C67.85925 12.102575 68.1575 8.63745 69.866 5.865375H69.83875ZM104.2485 8.29095C105.55 5.705425 108.0175 4.10615 110.919 3.866275C113.44075 3.679675 116.2335 4.585925 117.69775 6.7183C119.81275 9.75695 118.24025 13.888425 116.04375 16.420625C113.6305 19.1927 110.15975 20.951925 106.87875 22.5512C103.435 18.63295 101.75375 13.222075 104.2485 8.2643V8.29095ZM146.63025 12.822225C148.1485 7.51795 152.86675 2.74675 158.6965 2.69345C161.869 2.6668 165.4755 4.505975 165.28575 7.99775C165.20425 9.7303 164.01125 11.4895 163.1435 12.92885C162.33 14.2616 161.40825 15.567675 160.432 16.76715C157.368 20.4988 153.57175 23.537425 149.34175 25.883C146.4675 22.178025 145.2745 17.513475 146.65725 12.7956L146.63025 12.822225Z" fill="#7B3289"></path> </svg>