<svg width="131" height="131" viewBox="0 0 131 131" fill="none" xmlns="http://www.w3.org/2000/svg">
<path d="M65.4742 129.985C101.367 129.985 130.465 100.887 130.465 64.9923C130.465 29.098 101.367 0 65.4742 0C29.5812 0 0.484375 29.098 0.484375 64.9923C0.484375 100.887 29.5812 129.985 65.4742 129.985Z" fill="#AFAFAF"/>
<path d="M65.6095 91.7181C79.568 91.7181 90.8836 76.0466 90.8836 56.7145C90.8836 37.3826 79.568 21.7109 65.6095 21.7109C51.6512 21.7109 40.3359 37.3826 40.3359 56.7145C40.3359 76.0466 51.6512 91.7181 65.6095 91.7181Z" fill="white"/>
<path d="M69.4213 65.041C66.8471 65.041 64.2728 65.041 61.6986 65.041C56.381 65.041 52.0703 69.352 52.0703 74.6696C52.0703 81.9913 52.0703 89.3129 52.0703 96.6346C52.0703 101.953 56.381 106.264 61.6986 106.264C64.2728 106.264 66.8471 106.264 69.4213 106.264C74.7388 106.264 79.0491 101.953 79.0491 96.6346C79.0491 89.3129 79.0491 81.9913 79.0491 74.6696C79.0491 69.352 74.7388 65.041 69.4213 65.041Z" fill="white"/>
<path d="M44.3471 58.7218C45.1495 64.3385 43.8459 69.153 41.539 69.5542C39.2322 69.9554 36.7248 65.7425 36.0227 60.1259C35.2203 54.5093 36.524 49.6952 38.8308 49.294C41.1376 48.8928 43.6451 53.1052 44.3471 58.7218Z" fill="white"/>
<path d="M86.8742 58.7218C86.0719 64.3385 87.3755 69.153 89.6824 69.5542C91.9892 69.9554 94.4966 65.7425 95.1987 60.1259C96.0011 54.5093 94.6974 49.6952 92.3906 49.294C90.0838 48.8928 87.5763 53.1052 86.8742 58.7218Z" fill="white"/>
<path d="M41.2392 55.411C40.4369 49.7944 39.5342 44.178 38.7319 38.5613C38.431 36.5554 38.1302 34.3488 38.8323 32.4431C39.5343 30.5375 41.7406 29.0328 43.6462 29.7349C42.8438 25.8233 47.1567 22.9147 50.9679 21.7111C57.2863 19.5046 64.0056 18.4014 70.6249 19.3041C77.2443 20.2068 83.6631 23.1156 88.1763 28.0301C89.5804 29.6349 90.7842 31.3397 91.4862 33.3457C92.7901 37.157 91.9878 41.3695 91.0852 45.3813C90.3831 48.4905 89.7814 51.7 89.0793 54.8092C88.8787 55.5112 88.7781 56.3136 88.2767 56.8151C87.4743 57.7178 86.1707 57.7177 84.9672 57.7177C72.4305 57.7177 59.8939 57.7177 47.3572 57.7177C45.0505 57.7177 41.9412 57.116 41.6403 54.8092" fill="white"/>
<path d="M65.2087 89.5137C44.0468 89.5137 25.1916 94.6288 12.5547 102.552C24.289 119.202 43.6455 130.034 65.6097 130.034C87.5739 130.034 106.63 119.302 118.364 102.953C105.827 94.8293 86.6714 89.6141 65.2087 89.6141C65.2087 89.5806 65.2087 89.5471 65.2087 89.5137Z" fill="white"/>
<path d="M30.8472 86.071L29.2781 74.1656L30.4889 73.601L38.8128 82.3566L37.5241 82.9575L35.0669 80.276L31.5125 81.9335L32.0438 85.513L30.8472 86.071ZM31.3165 80.6628L34.1983 79.3191L31.9727 76.8571C31.2873 76.102 30.7521 75.4781 30.3672 74.9852C30.569 75.7014 30.7237 76.4338 30.8314 77.1824L31.3165 80.6628ZM39.7049 81.9406L34.8646 71.5605L35.9904 71.0356L37.9781 75.298L42.4034 73.2345L40.4158 68.972L41.5416 68.447L46.3819 78.8271L45.2561 79.3521L42.9746 74.4594L38.5493 76.523L40.8307 81.4156L39.7049 81.9406ZM45.6176 73.0287C44.7921 71.2586 44.5477 69.7175 44.8841 68.4055C45.2183 67.0888 45.966 66.1597 47.1272 65.6183C47.8778 65.2683 48.6613 65.1615 49.4777 65.298C50.2942 65.4345 51.0711 65.8251 51.8085 66.4697C52.5483 67.1074 53.1791 67.9856 53.7008 69.1043C54.4183 70.6431 54.6534 72.0593 54.406 73.3527C54.1341 74.7783 53.375 75.7816 52.1288 76.3627C50.8732 76.9482 49.6077 76.8717 48.3324 76.1332C47.1762 75.4655 46.2713 74.4306 45.6176 73.0287ZM46.7887 72.5085C47.3852 73.7877 48.1294 74.6503 49.0213 75.0965C49.9157 75.5357 50.7665 75.5671 51.5737 75.1907C52.3997 74.8055 52.9251 74.1266 53.1497 73.1541C53.3791 72.1794 53.1713 71.0005 52.5263 69.6174C52.1103 68.7253 51.5944 67.9947 50.9785 67.4256C50.5057 66.991 49.9702 66.7177 49.3721 66.6058C48.7765 66.487 48.2144 66.5509 47.6857 66.7974C46.836 67.1936 46.3002 67.8745 46.078 68.8401C45.8606 69.8035 46.0975 71.0263 46.7887 72.5085ZM57.5479 73.6203L52.7076 63.2402L53.8334 62.7153L55.821 66.9777L60.2463 64.9142L58.2587 60.6517L59.3845 60.1267L64.2248 70.5068L63.099 71.0318L60.8175 66.1391L56.3922 68.2027L58.6737 73.0953L57.5479 73.6203ZM61.3104 59.2287L62.33 58.7532L66.1633 66.9737L66.8616 56.6401L67.9944 56.1119L72.8347 66.4919L71.8151 66.9674L67.9918 58.7681L67.2765 69.0838L66.1507 69.6087L61.3104 59.2287ZM74.6544 65.6434L69.8141 55.2633L71.5064 54.4742L76.9515 60.8828L78.0716 62.2311C77.9924 61.8025 77.8848 61.1774 77.7488 60.3559L76.4203 52.1828L77.9355 51.4763L82.7758 61.8563L81.6925 62.3615L77.6413 53.6737L79.2143 63.5171L78.2018 63.9892L71.6172 56.3017L75.7378 65.1382L74.6544 65.6434ZM84.5955 61.0078L79.7552 50.6277L80.881 50.1028L82.8686 54.3652L87.294 52.3017L85.3063 48.0392L86.4321 47.5142L91.2724 57.8943L90.1466 58.4193L87.8652 53.5266L83.4398 55.5902L85.7213 60.4828L84.5955 61.0078ZM90.5081 52.0959C89.6827 50.3258 89.4382 48.7847 89.7747 47.4727C90.1089 46.156 90.8566 45.2269 92.0178 44.6855C92.7683 44.3355 93.5518 44.2287 94.3683 44.3652C95.1848 44.5017 95.9617 44.8923 96.699 45.5369C97.4389 46.1746 98.0697 47.0528 98.5913 48.1715C99.3089 49.7103 99.544 51.1265 99.2966 52.4199C99.0247 53.8455 98.2656 54.8488 97.0194 55.4299C95.7638 56.0154 94.4983 55.9389 93.223 55.2004C92.0668 54.5327 91.1619 53.4978 90.5081 52.0959ZM91.6793 51.5757C92.2758 52.8549 93.02 53.7175 93.9119 54.1637C94.8063 54.6029 95.6571 54.6343 96.4643 54.2579C97.2903 53.8727 97.8157 53.1938 98.0403 52.2213C98.2696 51.2466 98.0618 50.0677 97.4169 48.6846C97.0009 47.7925 96.4849 47.0619 95.869 46.4928C95.3962 46.0582 94.8608 45.7849 94.2627 45.673C93.6671 45.5542 93.105 45.6181 92.5763 45.8646C91.7266 46.2608 91.1907 46.9417 90.9686 47.9073C90.7512 48.8707 90.9881 50.0935 91.6793 51.5757Z" fill="black"/>
</svg>
