<svg width="39" height="36" viewBox="0 0 39 36" fill="none" xmlns="http://www.w3.org/2000/svg">
<path d="M26.7814 3.82389C26.7814 4.24551 26.7814 4.66713 26.7814 5.08876C25.938 5.08876 25.0946 5.08876 24.2512 5.08876C24.2512 4.66713 24.2512 4.24551 24.2512 3.82389C24.2512 3.12846 23.6817 2.55903 22.9862 2.55903C20.456 2.55903 17.9259 2.55903 15.3957 2.55903C14.7001 2.55903 14.1306 3.12846 14.1306 3.82389C14.1306 4.24551 14.1306 4.66713 14.1306 5.08876C13.2873 5.08876 12.4439 5.08876 11.6005 5.08876C11.6005 4.66713 11.6005 4.24551 11.6005 3.82389C11.6005 1.73699 13.3084 0.0292969 15.3957 0.0292969C17.9259 0.0292969 20.456 0.0292969 22.9862 0.0292969C25.0734 0.0292969 26.7814 1.73699 26.7814 3.82389ZM38.167 11.4131C38.167 18.159 38.167 24.905 38.167 31.6509C38.167 33.7434 36.4646 35.4455 34.3718 35.4455C24.2512 35.4455 14.1306 35.4455 4.01006 35.4455C1.91726 35.4455 0.214844 33.7434 0.214844 31.6509C0.214844 24.905 0.214844 18.159 0.214844 11.4131C0.214844 9.32059 1.91726 7.61848 4.01006 7.61848C14.1306 7.61848 24.2512 7.61848 34.3718 7.61848C36.4646 7.61848 38.167 9.32059 38.167 11.4131ZM26.7814 20.2671C26.7814 19.5717 26.2119 19.0023 25.5163 19.0023C24.2512 19.0023 22.9862 19.0023 21.7211 19.0023C21.7211 17.7374 21.7211 16.4725 21.7211 15.2077C21.7211 14.5122 21.1516 13.9428 20.456 13.9428C19.6126 13.9428 18.7692 13.9428 17.9259 13.9428C17.2303 13.9428 16.6608 14.5122 16.6608 15.2077C16.6608 16.4725 16.6608 17.7374 16.6608 19.0023C15.3957 19.0023 14.1306 19.0023 12.8656 19.0023C12.17 19.0023 11.6005 19.5717 11.6005 20.2671C11.6005 21.1104 11.6005 21.9536 11.6005 22.7969C11.6005 23.4923 12.17 24.0617 12.8656 24.0617C14.1306 24.0617 15.3957 24.0617 16.6608 24.0617C16.6608 25.3266 16.6608 26.5915 16.6608 27.8563C16.6608 28.5518 17.2303 29.1212 17.9259 29.1212C18.7692 29.1212 19.6126 29.1212 20.456 29.1212C21.1516 29.1212 21.7211 28.5518 21.7211 27.8563C21.7211 26.5915 21.7211 25.3266 21.7211 24.0617C22.9862 24.0617 24.2512 24.0617 25.5163 24.0617C26.2119 24.0617 26.7814 23.4923 26.7814 22.7969C26.7814 21.9536 26.7814 21.1104 26.7814 20.2671Z" fill="#7B3289"/>
</svg>
