<svg width="36" height="42" viewBox="0 0 36 42" fill="none" xmlns="http://www.w3.org/2000/svg">
<path fill-rule="evenodd" clip-rule="evenodd" d="M32.2014 27.3549C29.2007 25.9171 23.8981 28.9181 19.6375 31.3254C17.936 32.2882 16.3338 33.198 15.6216 33.3366C15.0083 33.4619 14.5067 33.3829 14.0846 33.0992C13.5834 32.7563 13.2997 32.1761 13.1546 31.7606C13.4646 31.6617 13.8405 31.5892 14.2889 31.5761C18.4439 31.4177 21.0428 29.9137 21.0823 27.645C21.1021 26.5964 20.6863 26.0097 20.3367 25.7064C19.5189 24.9941 18.3977 25.1458 18.2856 25.1656C18.246 25.1656 14.6651 25.673 12.4954 25.396C12.4294 25.3872 12.3635 25.3787 12.2975 25.3699C10.1607 25.0995 8.14243 24.8356 6.16384 27.6055C4.62059 29.7556 2.0685 29.4326 1.9629 29.4193C1.77171 29.393 1.58006 29.4455 1.43495 29.5708C1.28984 29.6961 1.21094 29.8809 1.21094 30.0721C1.21094 32.9432 1.21094 35.8146 1.21094 38.6857C1.21094 39.022 1.4617 39.3054 1.7981 39.3449C5.41878 39.7428 9.03938 40.1405 12.6602 40.5385C13.0294 40.5781 13.3985 40.5982 13.7679 40.5982C15.7201 40.5982 17.646 40.0377 19.2882 38.9758C23.652 36.164 28.0157 33.3521 32.3795 30.5404C32.94 30.1777 33.2633 29.5378 33.2238 28.8716C33.1776 28.2122 32.8016 27.6384 32.2014 27.3549Z" fill="#7B3289"/>
<path fill-rule="evenodd" clip-rule="evenodd" d="M31.5214 3.0574C29.6879 1.50758 27.7295 0.841097 25.6783 1.0719C22.6842 1.4083 20.3624 3.58496 19.3666 4.67976C18.3641 3.58496 16.0426 1.4083 13.0484 1.0719C11.0039 0.841097 9.03883 1.50758 7.20535 3.0574C4.73222 5.14806 3.92721 8.49821 5.05505 12.0134C6.54556 16.6894 11.5382 21.6952 19.3074 22.3416C19.3447 22.3416 19.382 22.3416 19.4194 22.3416C27.1885 21.6952 32.1812 16.6894 33.6717 12.0134C34.7994 8.49821 33.9946 5.14806 31.5214 3.0574ZM17.0717 18.1732C17.0717 17.329 17.0717 16.4852 17.0717 15.641C16.2253 15.641 15.379 15.641 14.5326 15.641C14.1698 15.641 13.8729 15.344 13.8729 14.9813C13.8729 13.8908 13.8729 12.8004 13.8729 11.7099C13.8729 11.3472 14.1698 11.0502 14.5326 11.0502C15.379 11.0502 16.2253 11.0502 17.0717 11.0502C17.0717 10.2062 17.0717 9.36222 17.0717 8.51804C17.0717 8.15526 17.3617 7.85834 17.7309 7.85834C18.8191 7.85834 19.9076 7.85834 20.9958 7.85834C21.3652 7.85834 21.655 8.15526 21.655 8.51804C21.655 9.36222 21.655 10.2062 21.655 11.0502C22.5014 11.0502 23.3477 11.0502 24.1941 11.0502C24.5569 11.0502 24.8538 11.3472 24.8538 11.7099C24.8538 12.8004 24.8538 13.8908 24.8538 14.9813C24.8538 15.344 24.5569 15.641 24.1941 15.641C23.3477 15.641 22.5014 15.641 21.655 15.641C21.655 16.4852 21.655 17.329 21.655 18.1732C21.655 18.536 21.3652 18.8329 20.9958 18.8329C19.9076 18.8329 18.8191 18.8329 17.7309 18.8329C17.3617 18.8329 17.0717 18.536 17.0717 18.1732Z" fill="#7B3289"/>
</svg>
