<svg width="181" height="181" viewBox="0 0 181 181" fill="none" xmlns="http://www.w3.org/2000/svg">
<g clip-path="url(#clip0_464_1144)">
<g clip-path="url(#clip1_464_1144)">
<path d="M92.5854 5.90692C92.3965 5.71678 92.3102 5.45867 92.3261 5.13201C92.3419 4.80535 92.4525 4.56044 92.6586 4.39813C92.8737 4.22765 93.1275 4.14953 93.4198 4.16375C93.7206 4.17839 93.9657 4.28074 94.1547 4.47088C94.3526 4.65284 94.4434 4.9074 94.4276 5.23406C94.4117 5.56072 94.2965 5.80918 94.0814 5.97967C93.8753 6.14198 93.6215 6.21599 93.3207 6.20135C93.0284 6.18714 92.7834 6.08889 92.5854 5.90692Z" fill="#070809"/>
<path d="M107.716 2.2207C109.528 2.62041 111.339 3.01989 113.15 3.4196C112.501 6.36159 111.853 9.30355 111.204 12.2455C110.851 12.1676 110.498 12.09 110.145 12.0121C110.719 9.40636 111.294 6.80037 111.869 4.19461C110.747 3.947 109.624 3.69945 108.502 3.45183C107.758 5.8263 107.173 7.46018 106.747 8.3534C105.952 10.0025 105.068 10.8122 104.096 10.7829C103.992 10.7774 103.881 10.762 103.763 10.7361C103.494 10.6766 103.244 10.5726 103.012 10.4245C103.086 10.0883 103.159 9.75227 103.233 9.41605C103.388 9.51199 103.585 9.58587 103.82 9.63776C104.114 9.70277 104.406 9.61761 104.696 9.38186C104.986 9.14615 105.248 8.81573 105.483 8.39149C105.728 7.96071 105.974 7.42466 106.221 6.78287C106.478 6.13453 106.712 5.47635 106.921 4.80847C107.138 4.14244 107.366 3.40838 107.605 2.60601C107.618 2.54717 107.627 2.50524 107.632 2.48002C107.648 2.44825 107.663 2.4069 107.674 2.35646C107.693 2.30789 107.707 2.26273 107.716 2.2207Z" fill="#070809"/>
<path d="M121.799 15.836C121.46 15.7108 121.121 15.5857 120.782 15.4605C121.527 13.4415 122.272 11.4224 123.016 9.40348C123.106 9.16121 123.195 8.91909 123.284 8.67682C120.75 10.3107 118.216 11.9445 115.682 13.5784C115.368 13.4621 115.053 13.346 114.738 13.2297C115.781 10.4032 116.823 7.57654 117.866 4.75C118.205 4.87517 118.544 5.00037 118.883 5.12554C118.14 7.14048 117.397 9.15539 116.654 11.1703C116.564 11.4126 116.475 11.6547 116.385 11.897C118.918 10.2672 121.45 8.63748 123.982 7.00764C124.297 7.12387 124.613 7.24009 124.928 7.35632C123.885 10.1829 122.842 13.0095 121.799 15.836Z" fill="#070809"/>
<path d="M131.226 23.0015C130.923 22.8385 130.62 22.6755 130.316 22.5126C130.656 21.889 130.996 21.2654 131.335 20.6417C129.132 19.4587 126.93 18.2755 124.727 17.0924C126.151 14.4379 127.576 11.7835 129 9.12891C129.318 9.29995 129.637 9.47112 129.955 9.64216C128.694 11.9934 127.432 14.3442 126.171 16.6954C127.706 17.52 129.242 18.3448 130.777 19.1694C132.039 16.8182 133.301 14.4673 134.563 12.1161C134.881 12.2872 135.2 12.4579 135.518 12.6289C134.256 14.9801 132.994 17.3314 131.732 19.6826C132.062 19.8598 132.393 20.0368 132.723 20.214C132.224 21.1431 131.725 22.0723 131.226 23.0015Z" fill="#070809"/>
<path d="M139.863 15.3379C141.518 16.5147 143.175 17.6919 144.831 18.8687C144.631 19.1494 144.432 19.4299 144.232 19.7106C142.871 18.7432 141.51 17.7757 140.149 16.8083C139.583 17.6048 139.017 18.4013 138.452 19.1978C139.708 20.0904 140.963 20.9834 142.219 21.8759C142.019 22.1566 141.82 22.4371 141.621 22.7178C140.365 21.8253 139.109 20.9328 137.853 20.0402C137.273 20.8578 136.692 21.6752 136.111 22.4927C137.493 23.475 138.875 24.4576 140.258 25.4399C140.058 25.7206 139.859 26.0011 139.66 26.2818C137.983 25.09 136.306 23.8984 134.629 22.7066C136.373 20.2504 138.118 17.7941 139.863 15.3379Z" fill="#070809"/>
<path d="M152.45 25.4435C152.717 25.6871 152.985 25.9309 153.252 26.1745C151.223 28.401 149.193 30.6273 147.163 32.8537C146.896 32.6101 146.628 32.3663 146.361 32.1226C147.263 31.1335 148.165 30.1446 149.066 29.1554C147.747 27.9518 146.427 26.7477 145.108 25.5441C144.206 26.5332 143.304 27.5226 142.402 28.5118C142.135 28.2681 141.869 28.0244 141.602 27.7807C143.631 25.5543 145.661 23.328 147.69 21.1016C147.957 21.3452 148.224 21.589 148.491 21.8326C147.595 22.8154 146.7 23.798 145.804 24.7808C147.123 25.9845 148.443 27.1885 149.762 28.3921C150.658 27.4093 151.554 26.4263 152.45 25.4435Z" fill="#070809"/>
<path d="M155.323 38.3655C154.969 38.6667 154.587 38.8497 154.178 38.9144C153.782 38.9801 153.392 38.9395 153.007 38.7923C152.634 38.6461 152.284 38.4466 151.957 38.1941C151.628 37.9538 151.319 37.6634 151.029 37.3224C150.276 36.4371 149.727 35.4977 149.379 34.5046C149.654 34.2704 149.93 34.0361 150.205 33.8019C150.469 34.7759 150.989 35.7066 151.765 36.5938C152.865 37.8858 153.837 38.1723 154.682 37.4528C155.508 36.75 155.397 35.7819 154.349 34.5491C153.95 34.0802 153.551 33.6115 153.152 33.1426C153.415 32.9195 153.677 32.6962 153.94 32.4731C154.313 32.9125 154.686 33.3518 155.06 33.7912C155.49 34.2961 155.928 34.6187 156.374 34.7586C156.827 34.8929 157.234 34.807 157.595 34.5002C158.348 33.8588 158.218 32.9415 157.204 31.7479C156.597 31.0209 155.829 30.4426 154.899 30.0133C155.174 29.779 155.45 29.5448 155.725 29.3105C156.594 29.7351 157.369 30.3472 158.049 31.1472C158.695 31.9079 159.062 32.6581 159.149 33.398C159.242 34.1323 158.994 34.7508 158.404 35.2528C158.004 35.593 157.577 35.7748 157.123 35.7992C156.676 35.8182 156.255 35.7078 155.859 35.4681C156.098 35.9088 156.193 36.3931 156.144 36.9205C156.101 37.4545 155.827 37.9361 155.323 38.3655Z" fill="#070809"/>
<path d="M159.663 48.9029C159.465 48.6003 159.267 48.2977 159.069 47.9951C160.87 46.8169 162.67 45.6386 164.471 44.4604C164.687 44.319 164.903 44.1779 165.12 44.0365C162.111 43.8396 159.102 43.6426 156.094 43.4456C155.91 43.1647 155.727 42.8837 155.543 42.6027C158.064 40.9533 160.585 39.3038 163.106 37.6543C163.304 37.9569 163.502 38.2596 163.7 38.5621C161.903 39.738 160.106 40.9137 158.308 42.0895C158.092 42.2309 157.876 42.372 157.66 42.5134C160.665 42.7126 163.67 42.9123 166.674 43.1116C166.858 43.3926 167.042 43.6735 167.226 43.9545C164.705 45.604 162.184 47.2534 159.663 48.9029Z" fill="#070809"/>
<path d="M161.428 52.0809C161.237 51.6856 161.046 51.2904 160.855 50.8951C162.278 51.197 163.7 51.4987 165.122 51.8005C164.97 51.1094 165.007 50.4744 165.234 49.896C165.465 49.3253 165.914 48.8793 166.58 48.5569C167.153 48.2797 167.71 48.1963 168.253 48.3074C168.802 48.4148 169.272 48.6558 169.663 49.0306C170.066 49.4095 170.406 49.886 170.683 50.4595C171.177 51.4825 171.672 52.5053 172.166 53.5283C169.454 54.8399 166.742 56.1514 164.03 57.463C163.872 57.1374 163.715 56.8123 163.558 56.4868C164.55 56.0071 165.541 55.5273 166.533 55.0476C166.196 54.3501 165.859 53.6525 165.522 52.955C165.52 52.9511 165.518 52.9472 165.516 52.9433C164.154 52.6557 162.791 52.3685 161.428 52.0809ZM168.582 49.5537C168.124 49.2973 167.619 49.3022 167.069 49.5683C166.518 49.8343 166.198 50.2287 166.106 50.7511C166.026 51.2776 166.135 51.8506 166.435 52.4706C166.778 53.1797 167.121 53.8887 167.463 54.5978C168.564 54.0657 169.664 53.5335 170.765 53.0014C170.422 52.2923 170.079 51.5833 169.737 50.8741C169.437 50.2542 169.052 49.814 168.582 49.5537Z" fill="#070809"/>
<path d="M166.977 64.6736C169.962 63.9452 172.947 63.2167 175.933 62.4883C176.036 62.9106 176.139 63.3332 176.242 63.7555C174.114 65.7144 171.987 67.6731 169.86 69.6319C169.864 69.6486 169.868 69.665 169.872 69.6817C170.088 69.6203 170.336 69.5466 170.616 69.4604C170.896 69.3743 171.177 69.2925 171.459 69.2148C171.75 69.135 172 69.0695 172.209 69.0185C173.882 68.6104 175.554 68.2023 177.227 67.7942C177.307 68.1245 177.387 68.4552 177.468 68.7856C174.482 69.514 171.497 70.2425 168.511 70.9709C168.412 70.5611 168.312 70.151 168.213 69.7413C170.344 67.7637 172.475 65.7864 174.607 63.8088C174.603 63.7921 174.598 63.7752 174.594 63.7585C174.381 63.8282 174.124 63.9042 173.825 63.986C173.537 64.0742 173.247 64.1577 172.957 64.2375C172.668 64.3257 172.411 64.3973 172.185 64.4524C170.53 64.8564 168.874 65.2605 167.218 65.6645C167.138 65.3342 167.057 65.004 166.977 64.6736ZM168.803 72.1625C169.091 72.0921 169.379 72.0214 169.668 71.951C169.93 73.0257 170.192 74.1005 170.454 75.1751C170.166 75.2455 169.877 75.3157 169.589 75.3861C169.327 74.3115 169.065 73.2371 168.803 72.1625ZM170.875 73.358C170.787 72.9984 170.788 72.657 170.878 72.3339C170.978 72.0172 171.167 71.7406 171.446 71.5042C171.725 71.2678 172.095 71.0934 172.554 70.9812C173.24 70.8138 173.804 70.8535 174.245 71.1003C174.697 71.3534 174.993 71.7724 175.136 72.3578C175.223 72.7175 175.217 73.0559 175.117 73.3726C175.028 73.6958 174.845 73.9752 174.566 74.2116C174.296 74.4543 173.932 74.6322 173.472 74.7444C172.786 74.9117 172.218 74.8686 171.766 74.6155C171.315 74.3624 171.018 73.9434 170.875 73.358ZM171.609 73.2056C171.698 73.5736 171.88 73.808 172.152 73.9098C172.434 74.0095 172.804 74.0035 173.264 73.8912C173.732 73.777 174.056 73.6139 174.234 73.4019C174.421 73.1879 174.47 72.8972 174.38 72.5292C174.293 72.1696 174.116 71.9337 173.85 71.8216C173.592 71.7074 173.228 71.7074 172.759 71.8216C172.299 71.9339 171.968 72.0988 171.764 72.3168C171.571 72.5412 171.519 72.8377 171.609 73.2056Z" fill="#070809"/>
<path d="M179.656 85.2568C179.697 86.9735 179.738 88.6901 179.778 90.4069C176.767 90.4784 173.755 90.5502 170.743 90.6218C170.739 90.4497 170.735 90.2777 170.731 90.1056C173.58 90.0379 176.428 89.9701 179.276 89.9024C179.243 88.5213 179.21 87.1404 179.177 85.7593C178.617 85.7295 178.169 85.7012 177.832 85.6748C177.505 85.6568 177.082 85.6282 176.565 85.5888C176.056 85.5492 175.642 85.5073 175.322 85.4633C175.003 85.4278 174.627 85.3808 174.195 85.3222C173.763 85.2635 173.413 85.1984 173.145 85.1273C172.876 85.0562 172.58 84.973 172.26 84.8773C171.939 84.7816 171.682 84.6713 171.49 84.5467C171.298 84.4222 171.113 84.2844 170.938 84.1335C170.771 83.9911 170.646 83.8263 170.564 83.6388C170.483 83.4599 170.439 83.2631 170.434 83.0479C170.428 82.807 170.462 82.5864 170.535 82.3867C170.699 82.3828 170.862 82.3789 171.025 82.375C170.969 82.5657 170.944 82.7647 170.949 82.9713C170.953 83.152 170.996 83.3188 171.077 83.4718C171.158 83.625 171.282 83.7597 171.448 83.8762C171.623 84.0012 171.807 84.113 171.998 84.2117C172.19 84.3191 172.442 84.4123 172.754 84.491C173.074 84.5694 173.369 84.64 173.637 84.7025C173.906 84.765 174.257 84.8214 174.688 84.8714C175.12 84.9215 175.495 84.9639 175.815 84.9994C176.134 85.0348 176.548 85.0681 177.057 85.099C177.566 85.1386 177.988 85.1672 178.324 85.185C178.66 85.2029 179.104 85.2268 179.656 85.2568Z" fill="#070809"/>
<path d="M173.488 94.7179C174.057 94.5834 174.629 94.5488 175.201 94.6139C175.774 94.6791 176.319 94.8408 176.836 95.0988C177.361 95.3578 177.825 95.6962 178.228 96.1146C178.63 96.5415 178.929 97.0736 179.125 97.711C179.33 98.3494 179.39 99.0405 179.305 99.785C179.22 100.537 179.005 101.201 178.662 101.778C178.328 102.355 177.918 102.801 177.431 103.119C176.944 103.445 176.415 103.675 175.846 103.81C175.285 103.945 174.717 103.98 174.145 103.915C173.572 103.85 173.023 103.688 172.498 103.429C171.981 103.171 171.521 102.829 171.119 102.402C170.716 101.984 170.414 101.455 170.209 100.816C170.013 100.179 169.958 99.4839 170.043 98.7312C170.128 97.9872 170.337 97.3265 170.671 96.7495C171.014 96.1734 171.429 95.7225 171.916 95.3967C172.403 95.0796 172.927 94.8533 173.488 94.7179ZM172.72 102.961C173.187 103.196 173.681 103.343 174.203 103.402C174.725 103.461 175.235 103.429 175.734 103.303C176.241 103.188 176.71 102.986 177.141 102.697C177.58 102.418 177.952 102.017 178.253 101.497C178.554 100.985 178.742 100.396 178.818 99.7289C178.894 99.0619 178.841 98.4456 178.663 97.8795C178.485 97.3135 178.214 96.8406 177.85 96.4613C177.494 96.0916 177.082 95.7895 176.615 95.5545C176.155 95.3289 175.665 95.1865 175.143 95.1272C174.622 95.0679 174.107 95.096 173.6 95.2116C173.101 95.3368 172.632 95.5388 172.193 95.8182C171.762 96.1069 171.396 96.507 171.094 97.0185C170.794 97.5301 170.605 98.1198 170.53 98.7869C170.454 99.454 170.505 100.07 170.683 100.636C170.86 101.211 171.128 101.683 171.485 102.053C171.849 102.432 172.26 102.735 172.72 102.961Z" fill="#070809"/>
<path d="M172.522 105.891C172.193 107.348 171.864 108.805 171.535 110.261C171.384 110.227 171.233 110.193 171.082 110.158C171.411 108.702 171.739 107.245 172.068 105.789C172.219 105.823 172.371 105.857 172.522 105.891Z" fill="#070809"/>
<path d="M176.218 113.808C175.591 115.713 174.965 117.618 174.338 119.522C174.199 119.477 174.06 119.431 173.921 119.386C171.7 117.241 169.479 115.096 167.258 112.951C167.315 112.775 167.373 112.6 167.431 112.424C169.638 114.555 171.846 116.686 174.054 118.818C174.62 117.097 175.186 115.375 175.752 113.654C175.908 113.705 176.063 113.756 176.218 113.808Z" fill="#070809"/>
<path d="M173.087 122.951C172.256 124.777 171.424 126.602 170.593 128.427C170.46 128.367 170.327 128.306 170.193 128.245C168.22 125.87 166.247 123.495 164.273 121.12C164.35 120.952 164.427 120.784 164.503 120.615C166.465 122.975 168.426 125.335 170.387 127.695C171.138 126.046 171.889 124.397 172.64 122.748C172.789 122.816 172.938 122.884 173.087 122.951Z" fill="#070809"/>
<path d="M164.103 129.248C163.358 130.542 162.612 131.835 161.867 133.129C161.733 133.052 161.599 132.975 161.465 132.897C162.21 131.603 162.955 130.31 163.701 129.016C163.835 129.093 163.969 129.17 164.103 129.248Z" fill="#070809"/>
<path d="M158.336 134.434C159.383 134.386 160.465 134.758 161.581 135.55C162.697 136.342 163.405 137.241 163.705 138.246C164.005 139.25 163.797 140.259 163.078 141.27C162.356 142.287 161.474 142.817 160.432 142.858C159.391 142.911 158.31 142.539 157.187 141.742C156.064 140.944 155.352 140.044 155.052 139.038C154.754 138.045 154.967 137.04 155.689 136.022C156.406 135.011 157.288 134.482 158.336 134.434ZM155.543 138.928C155.814 139.796 156.461 140.593 157.486 141.321C158.511 142.048 159.473 142.394 160.375 142.358C161.284 142.328 162.051 141.87 162.679 140.985C163.307 140.1 163.485 139.224 163.215 138.357C162.951 137.494 162.306 136.699 161.281 135.971C160.257 135.244 159.29 134.895 158.382 134.926C157.481 134.962 156.716 135.422 156.089 136.306C155.461 137.19 155.279 138.064 155.543 138.928Z" fill="#070809"/>
<path d="M158.042 147.465C157.962 147.555 157.881 147.645 157.801 147.735C155.735 145.9 153.67 144.066 151.604 142.231C151.209 142.675 150.815 143.119 150.42 143.563C150.298 143.455 150.177 143.347 150.055 143.239C151 142.173 151.946 141.107 152.891 140.041C153.013 140.15 153.135 140.259 153.258 140.367C152.821 140.86 152.384 141.353 151.947 141.845C153.874 143.557 155.802 145.268 157.73 146.98C157.98 146.322 158.23 145.664 158.481 145.006C158.603 145.114 158.726 145.222 158.848 145.331C158.579 146.042 158.31 146.753 158.042 147.465Z" fill="#070809"/>
<path d="M149.202 149.049C148.11 150.067 147.018 151.086 145.926 152.105C145.821 151.992 145.715 151.878 145.609 151.765C146.701 150.746 147.793 149.728 148.884 148.709C148.99 148.822 149.096 148.935 149.202 149.049Z" fill="#070809"/>
<path d="M142.16 152.323C143.175 152.583 144.1 153.256 144.935 154.34C145.77 155.424 146.184 156.491 146.177 157.54C146.17 158.589 145.675 159.491 144.694 160.248C143.705 161.009 142.707 161.257 141.697 160.991C140.687 160.737 139.762 160.065 138.921 158.974C138.081 157.883 137.665 156.813 137.672 155.765C137.678 154.727 138.175 153.828 139.163 153.066C140.146 152.31 141.144 152.062 142.16 152.323ZM138.173 155.802C138.178 156.711 138.564 157.663 139.33 158.659C140.098 159.654 140.918 160.267 141.79 160.497C142.667 160.733 143.535 160.521 144.394 159.859C145.253 159.197 145.68 158.411 145.676 157.502C145.676 156.599 145.293 155.651 144.526 154.655C143.76 153.659 142.938 153.043 142.06 152.807C141.188 152.577 140.321 152.793 139.462 153.455C138.603 154.117 138.174 154.9 138.173 155.802Z" fill="#070809"/>
<path d="M139.343 163.132C138.964 163.999 138.345 164.694 137.485 165.219C136.765 165.659 136.078 165.845 135.424 165.78C134.769 165.716 134.268 165.398 133.917 164.823C133.765 164.574 133.667 164.311 133.621 164.037C133.574 163.763 133.561 163.509 133.58 163.276C133.603 163.05 133.671 162.781 133.784 162.471C133.89 162.164 133.996 161.908 134.102 161.702C134.201 161.501 134.337 161.236 134.511 160.909C134.996 160.018 135.295 159.392 135.407 159.031C135.658 158.203 135.583 157.441 135.181 156.749C133.649 157.684 132.116 158.618 130.584 159.553C130.499 159.413 130.413 159.273 130.328 159.133C132.018 158.102 133.708 157.072 135.399 156.041C135.448 156.122 135.497 156.203 135.547 156.283C135.753 156.621 135.896 156.963 135.975 157.308C136.051 157.664 136.082 157.979 136.066 158.25C136.05 158.522 135.981 158.832 135.86 159.178C135.743 159.532 135.63 159.818 135.52 160.036C135.411 160.253 135.261 160.536 135.07 160.885C135.057 160.913 135.046 160.935 135.036 160.951C135.025 160.968 135.015 160.984 135.005 161C134.992 161.028 134.98 161.051 134.97 161.067C134.784 161.423 134.654 161.673 134.581 161.818C134.508 161.963 134.412 162.188 134.295 162.491C134.17 162.799 134.102 163.042 134.09 163.221C134.07 163.404 134.08 163.616 134.115 163.857C134.148 164.109 134.232 164.345 134.366 164.566C134.639 165.014 135.038 165.255 135.562 165.288C136.091 165.328 136.66 165.162 137.27 164.79C138.049 164.315 138.652 163.619 139.081 162.703C139.169 162.846 139.256 162.989 139.343 163.132Z" fill="#070809"/>
<path d="M127.372 161.976C128.307 162.45 129.064 163.307 129.645 164.546C130.225 165.786 130.398 166.917 130.164 167.94C129.93 168.962 129.252 169.736 128.129 170.262C126.998 170.792 125.97 170.817 125.043 170.339C124.112 169.872 123.354 169.015 122.77 167.768C122.186 166.521 122.011 165.387 122.245 164.365C122.475 163.354 123.155 162.583 124.285 162.053C125.407 161.527 126.437 161.502 127.372 161.976ZM122.726 164.509C122.534 165.397 122.705 166.411 123.238 167.549C123.77 168.687 124.438 169.463 125.24 169.876C126.046 170.297 126.938 170.277 127.921 169.817C128.903 169.357 129.49 168.683 129.683 167.794C129.878 166.914 129.71 165.905 129.177 164.767C128.644 163.628 127.975 162.848 127.169 162.427C126.367 162.014 125.475 162.037 124.493 162.498C123.511 162.958 122.922 163.628 122.726 164.509Z" fill="#070809"/>
<path d="M120.711 173.163C120.597 173.202 120.483 173.241 120.369 173.28C119.478 170.665 118.587 168.05 117.696 165.434C117.133 165.626 116.572 165.817 116.01 166.009C115.957 165.854 115.904 165.699 115.852 165.544C117.2 165.085 118.548 164.625 119.896 164.166C119.949 164.321 120.002 164.475 120.055 164.63C119.432 164.842 118.808 165.055 118.185 165.267C119.016 167.708 119.848 170.148 120.679 172.588C121.222 172.139 121.765 171.691 122.308 171.242C122.36 171.397 122.413 171.551 122.465 171.706C121.881 172.192 121.296 172.678 120.711 173.163Z" fill="#070809"/>
<path d="M112.696 173.578C112.825 174.158 112.678 174.711 112.257 175.236C111.836 175.762 111.129 176.134 110.138 176.354C109.213 176.559 108.429 176.499 107.783 176.175C107.13 175.853 106.733 175.394 106.592 174.799C106.474 174.305 106.496 173.829 106.659 173.37C106.813 172.912 107.088 172.503 107.484 172.142C106.898 172.043 106.418 171.863 106.043 171.602C105.661 171.352 105.414 170.974 105.302 170.47C105.167 169.857 105.34 169.267 105.823 168.702C106.299 168.146 107.075 167.749 108.151 167.511C109.226 167.272 110.11 167.319 110.801 167.65C111.485 167.992 111.904 168.512 112.059 169.21C112.171 169.714 112.132 170.216 111.943 170.716C111.746 171.219 111.411 171.659 110.94 172.037C111.936 172.275 112.521 172.789 112.696 173.578ZM109.079 171.815C109.648 171.839 110.103 171.879 110.441 171.936C110.906 171.604 111.237 171.209 111.435 170.751C111.625 170.294 111.667 169.83 111.563 169.359C111.429 168.754 111.077 168.321 110.508 168.059C109.93 167.799 109.175 167.773 108.243 167.98C107.368 168.173 106.716 168.494 106.286 168.942C105.857 169.39 105.696 169.859 105.804 170.346C105.86 170.598 105.959 170.81 106.103 170.98C106.249 171.16 106.411 171.296 106.59 171.388C106.771 171.489 106.996 171.567 107.263 171.622C107.533 171.686 107.79 171.726 108.032 171.743C108.267 171.77 108.548 171.791 108.878 171.807C108.967 171.813 109.035 171.816 109.079 171.815ZM107.08 174.612C107.188 175.099 107.514 175.477 108.058 175.745C108.593 176.014 109.256 176.06 110.046 175.885C110.862 175.704 111.453 175.406 111.819 174.989C112.178 174.584 112.308 174.154 112.207 173.7C112.14 173.397 112.014 173.148 111.83 172.951C111.647 172.762 111.409 172.625 111.117 172.54C110.825 172.455 110.561 172.395 110.324 172.359C110.078 172.325 109.777 172.299 109.419 172.282C109.33 172.275 109.264 172.272 109.22 172.273C108.847 172.259 108.431 172.236 107.974 172.205C107.596 172.527 107.33 172.895 107.175 173.308C107.012 173.732 106.981 174.167 107.08 174.612Z" fill="#070809"/>
<path d="M104.29 177.385C102.297 177.605 100.303 177.824 98.3096 178.043C98.2936 177.897 98.2777 177.752 98.2617 177.607C99.2932 174.696 100.324 171.786 101.356 168.875C101.54 168.855 101.724 168.835 101.907 168.814C100.883 171.707 99.8581 174.6 98.8336 177.492C100.635 177.294 102.436 177.096 104.237 176.898C104.255 177.06 104.272 177.223 104.29 177.385Z" fill="#070809"/>
<path d="M89.2252 173.326C89.4146 173.515 89.5014 173.774 89.4864 174.1C89.4714 174.427 89.3615 174.672 89.1559 174.835C88.9413 175.006 88.6874 175.084 88.3951 175.071C88.0942 175.057 87.8493 174.955 87.6598 174.766C87.4614 174.584 87.3694 174.33 87.3844 174.004C87.3994 173.677 87.5145 173.428 87.7291 173.257C87.9348 173.094 88.188 173.02 88.4889 173.033C88.7812 173.047 89.0267 173.144 89.2252 173.326Z" fill="#070809"/>
<path d="M74.1018 177.057C72.2893 176.662 70.4765 176.267 68.6641 175.872C69.3047 172.929 69.9456 169.985 70.5862 167.041C70.9395 167.118 71.2927 167.194 71.6459 167.271C71.0785 169.878 70.511 172.486 69.9435 175.093C71.0664 175.338 72.1894 175.583 73.3122 175.827C74.0496 173.451 74.63 171.815 75.0536 170.92C75.8446 169.269 76.7265 168.457 77.6985 168.484C77.8031 168.489 77.9139 168.504 78.0316 168.53C78.3007 168.588 78.5515 168.691 78.7836 168.839C78.7104 169.175 78.6371 169.512 78.5639 169.849C78.4085 169.753 78.2134 169.679 77.9779 169.628C77.6835 169.564 77.3916 169.65 77.1023 169.886C76.8129 170.123 76.5514 170.453 76.318 170.878C76.0743 171.311 75.83 171.847 75.5845 172.49C75.3287 173.139 75.0972 173.798 74.89 174.466C74.6744 175.132 74.4486 175.867 74.2122 176.67C74.1994 176.729 74.1899 176.771 74.1844 176.796C74.1687 176.828 74.1552 176.869 74.1443 176.92C74.1249 176.968 74.1109 177.015 74.1018 177.057Z" fill="#070809"/>
<path d="M59.9799 163.477C60.3194 163.601 60.6586 163.725 60.9981 163.85C60.2589 165.871 59.5197 167.892 58.7805 169.913C58.6918 170.155 58.6031 170.397 58.5144 170.64C61.0438 168.999 63.5734 167.358 66.1029 165.717C66.4181 165.832 66.7335 165.948 67.0488 166.064C66.0139 168.893 64.9787 171.722 63.9439 174.551C63.6044 174.427 63.2651 174.303 62.9257 174.179C63.6634 172.162 64.4012 170.145 65.1389 168.128C65.2276 167.885 65.3163 167.643 65.405 167.4C62.877 169.037 60.3489 170.674 57.8209 172.311C57.5057 172.195 57.1902 172.08 56.875 171.965C57.9098 169.135 58.9451 166.306 59.9799 163.477Z" fill="#070809"/>
<path d="M50.5367 156.334C50.8405 156.496 51.1442 156.658 51.448 156.82C51.1101 157.445 50.7721 158.069 50.4342 158.694C52.6404 159.871 54.8466 161.048 57.0528 162.225C55.6354 164.883 54.2181 167.542 52.8007 170.2C52.4818 170.03 52.163 169.86 51.844 169.69C53.0994 167.335 54.3548 164.981 55.6102 162.626C54.0723 161.805 52.5341 160.985 50.9963 160.165C49.7409 162.519 48.4855 164.874 47.2301 167.229C46.9111 167.059 46.5924 166.889 46.2734 166.719C47.5288 164.364 48.7842 162.009 50.0396 159.654C49.7092 159.478 49.3786 159.302 49.0482 159.125C49.5443 158.195 50.0407 157.264 50.5367 156.334Z" fill="#070809"/>
<path d="M41.9182 164.023C40.2592 162.85 38.6004 161.678 36.9414 160.506C37.14 160.225 37.3386 159.943 37.5372 159.662C38.901 160.626 40.2648 161.59 41.6286 162.554C42.1921 161.755 42.7557 160.957 43.3193 160.159C42.0609 159.27 40.8026 158.381 39.5443 157.492C39.7429 157.21 39.9415 156.929 40.1401 156.647C41.3984 157.537 42.6567 158.426 43.915 159.315C44.4935 158.496 45.0717 157.677 45.6501 156.857C44.2653 155.879 42.8806 154.9 41.4958 153.922C41.6943 153.641 41.8929 153.359 42.0915 153.078C43.7717 154.265 45.4517 155.452 47.1318 156.64C45.3939 159.101 43.6561 161.562 41.9182 164.023Z" fill="#070809"/>
<path d="M29.3028 153.952C29.0351 153.709 28.7677 153.466 28.5 153.223C30.5236 150.991 32.5471 148.759 34.5707 146.527C34.8384 146.77 35.1058 147.013 35.3735 147.255C34.4745 148.247 33.5754 149.239 32.6764 150.231C33.9992 151.431 35.3223 152.631 36.6452 153.831C37.5442 152.839 38.4433 151.848 39.3423 150.856C39.6101 151.099 39.8779 151.342 40.1457 151.585C38.1221 153.817 36.0986 156.048 34.075 158.28C33.8072 158.037 33.5394 157.795 33.2717 157.552C34.165 156.567 35.0579 155.581 35.9512 154.596C34.6284 153.396 33.3058 152.196 31.9829 150.996C31.0897 151.981 30.1961 152.967 29.3028 153.952Z" fill="#070809"/>
<path d="M26.3959 141.038C26.7491 140.735 27.1297 140.553 27.5377 140.487C27.9335 140.42 28.3239 140.459 28.7092 140.605C29.0825 140.75 29.4334 140.949 29.7616 141.201C30.0909 141.44 30.4011 141.73 30.6919 142.07C31.447 142.953 31.999 143.891 32.3489 144.883C32.0741 145.118 31.7998 145.353 31.525 145.588C31.2592 144.614 30.7363 143.685 29.9569 142.8C28.8551 141.512 27.8824 141.228 27.0386 141.95C26.2145 142.655 26.3284 143.622 27.3799 144.852C27.7798 145.32 28.1794 145.787 28.5793 146.255C28.3177 146.479 28.0562 146.703 27.7945 146.927C27.4198 146.488 27.0451 146.049 26.6704 145.611C26.2397 145.108 25.8007 144.786 25.3538 144.648C24.9002 144.515 24.4936 144.602 24.1339 144.91C23.3817 145.553 23.5144 146.47 24.5324 147.661C25.141 148.387 25.9111 148.963 26.8423 149.39C26.5675 149.625 26.2927 149.86 26.0179 150.095C25.1475 149.672 24.3713 149.062 23.689 148.264C23.0402 147.505 22.6711 146.755 22.5824 146.016C22.4872 145.282 22.734 144.663 23.3227 144.159C23.7217 143.818 24.1479 143.635 24.6017 143.609C25.0489 143.589 25.4706 143.698 25.867 143.937C25.6267 143.497 25.5301 143.013 25.5774 142.485C25.6191 141.951 25.8922 141.469 26.3959 141.038Z" fill="#070809"/>
<path d="M22.026 130.512C22.2246 130.814 22.4236 131.116 22.6222 131.418C20.8247 132.601 19.0269 133.784 17.2294 134.967C17.0137 135.109 16.7981 135.251 16.5823 135.392C19.5913 135.581 22.6 135.77 25.609 135.959C25.7934 136.24 25.9778 136.52 26.1623 136.801C23.6458 138.457 21.1294 140.113 18.6129 141.769C18.4142 141.467 18.2158 141.165 18.0171 140.863C19.811 139.683 21.6048 138.502 23.3987 137.322C23.6144 137.18 23.8301 137.037 24.0458 136.895C21.0404 136.704 18.0352 136.513 15.0299 136.322C14.8454 136.041 14.661 135.761 14.4766 135.48C16.9931 133.824 19.5094 132.168 22.026 130.512Z" fill="#070809"/>
<path d="M20.2535 127.336C20.4456 127.73 20.6376 128.125 20.8297 128.52C19.4067 128.222 17.9836 127.924 16.5606 127.627C16.7149 128.317 16.6792 128.952 16.4536 129.531C16.2243 130.102 15.7771 130.55 15.1116 130.874C14.5389 131.153 13.9816 131.237 13.44 131.128C12.8907 131.022 12.4197 130.782 12.0272 130.408C11.6233 130.031 11.2819 129.555 11.0031 128.983C10.5059 127.961 10.0089 126.939 9.51172 125.918C12.2203 124.599 14.9288 123.28 17.6374 121.961C17.7956 122.286 17.9539 122.611 18.112 122.936C17.1215 123.419 16.131 123.901 15.1404 124.384C15.4795 125.08 15.8182 125.776 16.1572 126.473C16.159 126.477 16.1612 126.481 16.163 126.485C17.5265 126.769 18.89 127.052 20.2535 127.336ZM13.1069 129.883C13.5661 130.138 14.0704 130.131 14.6199 129.864C15.1693 129.596 15.4893 129.201 15.5795 128.679C15.6583 128.152 15.5468 127.579 15.2454 126.96C14.9008 126.252 14.5562 125.543 14.2116 124.835C13.1127 125.37 12.0137 125.905 10.9147 126.441C11.2594 127.149 11.6039 127.857 11.9486 128.565C12.2499 129.185 12.6363 129.624 13.1069 129.883Z" fill="#070809"/>
<path d="M14.6709 114.761C11.6876 115.498 8.70424 116.235 5.72092 116.972C5.61677 116.549 5.51252 116.127 5.40838 115.705C7.53011 113.741 9.65179 111.776 11.7735 109.811C11.7694 109.795 11.7655 109.778 11.7613 109.762C11.5462 109.824 11.2986 109.898 11.0185 109.985C10.7385 110.072 10.4572 110.155 10.1752 110.233C9.88474 110.314 9.63544 110.38 9.42652 110.431C7.75518 110.843 6.08348 111.256 4.41214 111.669C4.33068 111.339 4.24943 111.009 4.16797 110.679C7.15129 109.942 10.1346 109.206 13.118 108.469C13.219 108.879 13.3202 109.288 13.4212 109.698C11.2953 111.681 9.16933 113.664 7.04337 115.647C7.0475 115.664 7.05146 115.681 7.05558 115.697C7.26873 115.627 7.52497 115.551 7.82375 115.468C8.1121 115.379 8.40113 115.294 8.69155 115.214C8.97991 115.125 9.23702 115.053 9.46266 114.997C11.1173 114.588 12.7721 114.18 14.4267 113.771C14.5082 114.101 14.5895 114.431 14.6709 114.761ZM12.824 107.278C12.5357 107.349 12.2474 107.42 11.9591 107.491C11.6941 106.417 11.4291 105.343 11.1641 104.27C11.4524 104.199 11.7406 104.128 12.0289 104.057C12.2939 105.13 12.559 106.204 12.824 107.278ZM10.7485 106.088C10.8372 106.447 10.8371 106.789 10.7485 107.112C10.6494 107.429 10.4609 107.706 10.1825 107.943C9.90411 108.181 9.53501 108.356 9.07539 108.469C8.39015 108.638 7.82656 108.6 7.38473 108.355C6.93247 108.103 6.63394 107.685 6.48958 107.1C6.4009 106.74 6.40614 106.402 6.50521 106.085C6.59387 105.762 6.7777 105.482 7.05607 105.245C7.32402 105.001 7.68791 104.823 8.14753 104.709C8.83278 104.54 9.40108 104.581 9.85334 104.833C10.3056 105.085 10.6041 105.503 10.7485 106.088ZM10.0155 106.243C9.92472 105.875 9.74267 105.641 9.46949 105.54C9.18796 105.441 8.81713 105.448 8.35752 105.561C7.88954 105.677 7.56673 105.841 7.38863 106.053C7.20219 106.268 7.15432 106.559 7.24506 106.927C7.33373 107.286 7.51146 107.521 7.77834 107.633C8.03685 107.746 8.39987 107.745 8.86785 107.63C9.32747 107.516 9.65897 107.35 9.86213 107.131C10.0549 106.907 10.1062 106.61 10.0155 106.243Z" fill="#070809"/>
<path d="M1.93312 94.2176C1.88771 92.5009 1.84229 90.784 1.79688 89.0674C4.80851 88.9877 7.82019 88.9079 10.8318 88.8281C10.8364 89.0002 10.8405 89.1727 10.845 89.3448C7.99689 89.4202 5.14898 89.4955 2.30085 89.5709C2.33739 90.952 2.3737 92.333 2.41024 93.7141C2.97068 93.7423 3.41916 93.7691 3.75565 93.7946C4.08331 93.8117 4.50625 93.8393 5.02389 93.8772C5.53293 93.9154 5.947 93.9561 6.26674 93.9993C6.58624 94.0339 6.96228 94.08 7.39434 94.1375C7.82639 94.1949 8.17696 94.259 8.44576 94.3294C8.71455 94.3997 9.00954 94.4822 9.33065 94.577C9.65175 94.6719 9.90854 94.7811 10.1013 94.9051C10.294 95.0293 10.4784 95.1664 10.6546 95.3168C10.822 95.4587 10.9467 95.6233 11.0291 95.8105C11.1113 95.9892 11.1554 96.1863 11.161 96.4015C11.1674 96.6424 11.1345 96.8627 11.0623 97.0627C10.8989 97.067 10.7355 97.0715 10.572 97.0759C10.6272 96.8849 10.6522 96.6861 10.6467 96.4796C10.642 96.299 10.5984 96.1319 10.5168 95.979C10.4353 95.8262 10.3114 95.6918 10.1447 95.5757C9.96922 95.4511 9.7854 95.3399 9.59338 95.2416C9.40111 95.1348 9.14897 95.0426 8.83692 94.9647C8.51628 94.8871 8.22158 94.8174 7.95301 94.7557C7.68445 94.6939 7.3344 94.6385 6.90257 94.5897C6.47075 94.5408 6.09496 94.4993 5.77546 94.4647C5.45595 94.4301 5.04192 94.398 4.5331 94.3685C4.02406 94.3302 3.60112 94.3023 3.26485 94.2854C2.9286 94.2685 2.48496 94.2461 1.93312 94.2176Z" fill="#070809"/>
<path d="M8.08155 84.7352C7.51219 84.8712 6.94113 84.9072 6.36793 84.8436C5.79474 84.78 5.24911 84.6202 4.73196 84.3636C4.20625 84.106 3.74178 83.7685 3.33772 83.3512C2.9346 82.9255 2.63406 82.3941 2.43622 81.7573C2.22983 81.1195 2.16761 80.4285 2.25016 79.6842C2.33366 78.9313 2.54632 78.2664 2.88746 77.6893C3.22004 77.1113 3.62901 76.6633 4.11468 76.3449C4.6013 76.0177 5.12904 75.786 5.6984 75.65C6.2592 75.5129 6.82661 75.4765 7.39981 75.5401C7.973 75.6037 8.52229 75.764 9.04799 76.0216C9.56514 76.2782 10.0254 76.6193 10.4286 77.0452C10.8326 77.4623 11.1378 77.9901 11.3442 78.6279C11.542 79.2648 11.5991 79.9598 11.5156 80.7127C11.433 81.457 11.2255 82.1179 10.893 82.6959C10.5518 83.2729 10.1377 83.725 9.6511 84.052C9.16543 84.3706 8.64235 84.5983 8.08155 84.7352ZM8.82726 76.4909C8.35954 76.2571 7.86455 76.1112 7.34267 76.0533C6.82081 75.9954 6.31023 76.0299 5.81121 76.1564C5.30459 76.2733 4.83628 76.4769 4.40574 76.7668C3.96759 77.0473 3.59843 77.4477 3.29816 77.9686C2.99884 78.481 2.81203 79.0711 2.73802 79.7384C2.66401 80.4057 2.71697 81.0222 2.89674 81.5878C3.0765 82.1534 3.34866 82.6253 3.71375 83.0035C4.07123 83.3723 4.484 83.6736 4.95171 83.9075C5.41183 84.1317 5.90271 84.2725 6.42458 84.3304C6.94644 84.3883 7.46065 84.359 7.96727 84.242C8.46628 84.1156 8.93508 83.912 9.37323 83.6315C9.80377 83.3415 10.1688 82.9401 10.4681 82.4278C10.7674 81.9154 10.9538 81.3258 11.0278 80.6585C11.1018 79.9912 11.0488 79.3747 10.869 78.8091C10.6902 78.235 10.4222 77.7636 10.0647 77.3948C9.69965 77.0166 9.28737 76.7151 8.82726 76.4909Z" fill="#070809"/>
<path d="M9.01562 73.562C9.3404 72.1045 9.66497 70.6469 9.98975 69.1895C10.1409 69.2232 10.2922 69.2568 10.4434 69.2905C10.1186 70.748 9.79402 72.2056 9.46924 73.6631C9.31803 73.6294 9.16683 73.5957 9.01562 73.562Z" fill="#070809"/>
<path d="M5.29297 65.6522C5.91457 63.7453 6.53637 61.8385 7.15798 59.9316C7.29709 59.977 7.43591 60.0225 7.57503 60.0679C9.80207 62.2068 12.0291 64.3455 14.2561 66.4843C14.1988 66.6603 14.1416 66.8363 14.0842 67.0122C11.8709 64.8869 9.65748 62.7617 7.44415 60.6363C6.88257 62.359 6.32092 64.0814 5.75934 65.804C5.60386 65.7533 5.44845 65.7029 5.29297 65.6522Z" fill="#070809"/>
<path d="M8.40234 56.4998C9.22868 54.6723 10.0554 52.845 10.8817 51.0176C11.015 51.0779 11.1483 51.1379 11.2817 51.1983C13.2615 53.5679 15.2412 55.9376 17.221 58.3072C17.1447 58.4758 17.0682 58.6445 16.9919 58.8131C15.0243 56.4584 13.0569 54.1038 11.0892 51.7491C10.3427 53.4001 9.59621 55.051 8.84967 56.702C8.70067 56.6346 8.55135 56.5672 8.40234 56.4998Z" fill="#070809"/>
<path d="M17.3672 50.1807C18.109 48.8848 18.8505 47.5889 19.5923 46.293C19.7267 46.3699 19.8612 46.447 19.9956 46.5239C19.2538 47.8199 18.5123 49.1157 17.7705 50.4116C17.6361 50.3346 17.5016 50.2577 17.3672 50.1807Z" fill="#070809"/>
<path d="M23.1242 44.9803C22.077 45.0313 20.9942 44.6625 19.8762 43.8732C18.7581 43.0839 18.0475 42.187 17.7445 41.1829C17.4417 40.1789 17.6478 39.1704 18.3623 38.1576C19.0818 37.1377 19.9625 36.6061 21.0048 36.5622C22.045 36.5062 23.1277 36.8755 24.2528 37.6697C25.3779 38.464 26.0917 39.3627 26.3947 40.3669C26.6955 41.3589 26.4862 42.365 25.7667 43.3849C25.0522 44.3977 24.1714 44.9294 23.1242 44.9803ZM25.9049 40.4792C25.6318 39.6121 24.982 38.8164 23.9554 38.0917C22.9286 37.3669 21.9646 37.0236 21.0634 37.0617C20.1551 37.0948 19.3884 37.5541 18.7632 38.4403C18.138 39.3266 17.9617 40.2035 18.2348 41.0706C18.5009 41.9327 19.1474 42.726 20.1741 43.4508C21.2007 44.1755 22.168 44.5217 23.0763 44.4886C23.9776 44.4505 24.7409 43.9884 25.3662 43.1021C25.9914 42.2159 26.171 41.3413 25.9049 40.4792Z" fill="#070809"/>
<path d="M23.3785 31.9449C23.4583 31.8545 23.5376 31.7642 23.6173 31.6738C25.6883 33.5029 27.7596 35.3319 29.8306 37.1609C30.2236 36.7157 30.6165 36.2706 31.0095 35.8253C31.1321 35.9335 31.2546 36.0418 31.3772 36.15C30.4345 37.2181 29.4919 38.2861 28.5492 39.3541C28.4266 39.2459 28.304 39.1376 28.1814 39.0294C28.6172 38.5356 29.053 38.0419 29.4888 37.5482C27.5565 35.8416 25.6244 34.1349 23.6921 32.4283C23.4434 33.0873 23.1945 33.7462 22.9459 34.4052C22.8233 34.2969 22.7007 34.1887 22.5781 34.0804C22.8448 33.3685 23.1118 32.6568 23.3785 31.9449Z" fill="#070809"/>
<path d="M32.2148 30.3369C33.3038 29.3152 34.3929 28.2932 35.4819 27.2715C35.5879 27.3845 35.6938 27.4978 35.7998 27.6108C34.7108 28.6325 33.6217 29.6541 32.5327 30.6758C32.4267 30.5628 32.3208 30.4499 32.2148 30.3369Z" fill="#070809"/>
<path d="M39.2506 27.0466C38.2344 26.7887 37.3075 26.1186 36.4694 25.0366C35.6315 23.9545 35.2144 22.8891 35.2188 21.8403C35.2231 20.7916 35.7153 19.8877 36.6951 19.1285C37.6817 18.364 38.6797 18.1133 39.6891 18.3765C40.7002 18.6276 41.6271 19.2972 42.4703 20.386C43.3135 21.4749 43.7331 22.5438 43.7288 23.5925C43.726 24.6293 43.2313 25.5301 42.2447 26.2946C41.2649 27.0538 40.2668 27.3046 39.2506 27.0466ZM43.2272 23.5569C43.22 22.6477 42.8315 21.6961 42.062 20.7025C41.2926 19.7088 40.4717 19.0986 39.5988 18.8712C38.7207 18.6369 37.8527 18.8519 36.9954 19.5163C36.1381 20.1806 35.713 20.9673 35.7203 21.8765C35.7223 22.7787 36.1083 23.7265 36.8777 24.7201C37.6472 25.7138 38.4711 26.3275 39.3492 26.5617C40.2222 26.7891 41.087 26.5711 41.9443 25.9068C42.8016 25.2424 43.2292 24.4591 43.2272 23.5569Z" fill="#070809"/>
<path d="M42.0352 16.227C42.4119 15.3596 43.0295 14.6622 43.888 14.1354C44.6069 13.6942 45.2938 13.5055 45.9483 13.5684C46.6029 13.6313 47.1054 13.9488 47.4563 14.5212C47.6093 14.7707 47.7092 15.0322 47.7562 15.3065C47.8032 15.5806 47.8174 15.8343 47.7991 16.0678C47.7762 16.2939 47.7086 16.5629 47.5965 16.8741C47.4918 17.1807 47.3867 17.437 47.281 17.6432C47.1826 17.845 47.0471 18.1097 46.8747 18.4378C46.3918 19.3299 46.0946 19.9566 45.983 20.3179C45.7342 21.1472 45.8121 21.9076 46.2159 22.599C47.7456 21.6603 49.2748 20.7218 50.8045 19.7832C50.89 19.9226 50.9758 20.0618 51.0613 20.2012C49.3739 21.2367 47.6865 22.2726 45.9991 23.3081C45.9496 23.2274 45.9001 23.1466 45.8506 23.0659C45.6437 22.7283 45.5 22.3869 45.4199 22.0423C45.3426 21.6857 45.3115 21.3715 45.3266 21.0998C45.3416 20.8279 45.4092 20.5186 45.5298 20.1719C45.6459 19.818 45.7581 19.532 45.8667 19.3139C45.9754 19.0958 46.1246 18.812 46.3146 18.4632C46.3277 18.435 46.3395 18.4132 46.3497 18.3967C46.3599 18.3804 46.3699 18.3638 46.38 18.3474C46.393 18.3193 46.4045 18.2973 46.4147 18.281C46.6001 17.9248 46.729 17.6739 46.8014 17.5285C46.8739 17.383 46.9687 17.1584 47.0852 16.8545C47.2092 16.5462 47.2768 16.3027 47.2883 16.124C47.3072 15.9406 47.2983 15.729 47.262 15.4886C47.2285 15.2365 47.1445 15.0002 47.0095 14.78C46.735 14.3324 46.3353 14.0929 45.8111 14.0612C45.2822 14.0222 44.7137 14.1896 44.1048 14.5632C43.3271 15.0405 42.7248 15.7381 42.2984 16.6563C42.2106 16.5132 42.1229 16.3701 42.0352 16.227Z" fill="#070809"/>
<path d="M54.009 17.3521C53.0727 16.8803 52.3127 16.0257 51.7289 14.7878C51.1451 13.55 50.9687 12.4192 51.2 11.3962C51.4313 10.3734 52.1076 9.59777 53.2286 9.06876C54.3574 8.53608 55.3855 8.50729 56.314 8.98281C57.2467 9.44689 58.0071 10.302 58.5946 11.5476C59.1821 12.7932 59.3602 13.9275 59.1288 14.9504C58.9016 15.9619 58.2235 16.734 57.0949 17.2667C55.9739 17.7957 54.9453 17.824 54.009 17.3521ZM58.6468 14.8064C58.8367 13.9173 58.6633 12.9045 58.1272 11.7679C57.5912 10.6313 56.9216 9.85729 56.1187 9.44626C55.3119 9.02741 54.4185 9.0493 53.4376 9.51218C52.4569 9.97508 51.8712 10.6513 51.6815 11.5403C51.4881 12.4216 51.6597 13.4304 52.1957 14.5671C52.7318 15.7038 53.4031 16.4816 54.2097 16.9004C55.0126 17.3115 55.9045 17.2856 56.8854 16.8228C57.8662 16.3599 58.4534 15.6877 58.6468 14.8064Z" fill="#070809"/>
<path d="M60.6448 6.14699C60.7587 6.10779 60.8727 6.0685 60.9866 6.0293C61.8848 8.64228 62.7826 11.2553 63.6808 13.8683C64.2425 13.6751 64.8045 13.4818 65.3661 13.2886C65.4193 13.4433 65.4722 13.5984 65.5253 13.753C64.1782 14.2164 62.8314 14.6795 61.4842 15.1429C61.4311 14.9882 61.3777 14.8336 61.3246 14.6789C61.9472 14.4648 62.5698 14.2504 63.1925 14.0363C62.3544 11.5983 61.5166 9.16073 60.6785 6.72275C60.137 7.17301 59.5952 7.62279 59.0537 8.07304C59.0006 7.91838 58.9477 7.76377 58.8945 7.60911C59.4779 7.12171 60.0614 6.63439 60.6448 6.14699Z" fill="#070809"/>
<path d="M68.6517 5.70774C68.5215 5.12823 68.6663 4.57493 69.0863 4.04833C69.5062 3.52173 70.2118 3.14723 71.2028 2.92464C72.1266 2.71713 72.9112 2.77451 73.5571 3.09703C74.2113 3.41765 74.6094 3.87535 74.7516 4.46978C74.8712 4.96342 74.8505 5.43993 74.6891 5.89966C74.536 6.3575 74.2618 6.7676 73.8667 7.12982C74.4532 7.22746 74.9348 7.4059 75.3108 7.66554C75.6931 7.91489 75.9405 8.29166 76.0536 8.79558C76.1912 9.40868 76.0193 9.99897 75.5379 10.5658C75.063 11.1225 74.2879 11.5213 73.2128 11.7628C72.1379 12.0042 71.2547 11.9599 70.5631 11.63C69.8781 11.2898 69.4572 10.7712 69.3007 10.0741C69.1876 9.57014 69.225 9.0679 69.4125 8.56703C69.6084 8.06427 69.9415 7.62329 70.4122 7.24409C69.4155 7.00921 68.8289 6.49722 68.6517 5.70774ZM72.2737 7.46141C71.7043 7.43935 71.2503 7.39989 70.9112 7.34371C70.448 7.67715 70.1178 8.07348 69.9209 8.53236C69.7323 8.98934 69.6907 9.45288 69.7963 9.92318C69.9321 10.5279 70.285 10.9606 70.8551 11.2207C71.4336 11.479 72.1888 11.5033 73.121 11.294C73.9945 11.0977 74.6455 10.7747 75.0739 10.3256C75.5025 9.87651 75.6618 9.40869 75.5525 8.92157C75.4959 8.66961 75.3958 8.45823 75.2517 8.28769C75.1057 8.10877 74.9429 7.97341 74.7634 7.88139C74.582 7.78096 74.3576 7.70341 74.0894 7.64893C73.8195 7.58605 73.5636 7.54652 73.3217 7.53026C73.0864 7.50372 72.804 7.4834 72.4745 7.46922C72.3848 7.46288 72.3177 7.46038 72.2737 7.46141ZM74.2647 4.65828C74.1554 4.17115 73.8285 3.79501 73.2837 3.52922C72.7473 3.26154 72.0841 3.21613 71.2946 3.39345C70.48 3.57643 69.8904 3.87672 69.5253 4.29397C69.1668 4.70093 69.0382 5.13115 69.14 5.58468C69.2079 5.88703 69.3346 6.13625 69.5199 6.33283C69.7034 6.52102 69.941 6.65728 70.2334 6.74158C70.5258 6.82588 70.7907 6.88587 71.028 6.9208C71.2736 6.95386 71.5748 6.97859 71.9314 6.99552C72.021 7.00185 72.0878 7.00437 72.1316 7.00333C72.5052 7.01649 72.9198 7.03802 73.3764 7.0678C73.7538 6.74483 74.0199 6.37662 74.1739 5.96266C74.3345 5.53841 74.3647 5.1034 74.2647 4.65828Z" fill="#070809"/>
<path d="M77.0508 1.87656C79.0438 1.65211 81.0372 1.42757 83.0301 1.20312C83.0465 1.34854 83.0626 1.4943 83.079 1.63971C82.0556 4.5528 81.0321 7.46563 80.0087 10.3787C79.8248 10.3995 79.6408 10.4205 79.4569 10.4412C80.4737 7.54618 81.4908 4.65099 82.5076 1.75594C80.707 1.95871 78.9065 2.16165 77.106 2.36442C77.0877 2.2019 77.0691 2.03908 77.0508 1.87656Z" fill="#070809"/>
</g>
</g>
<defs>
<clipPath id="clip0_464_1144">
<rect width="179.99" height="178.84" fill="white" transform="translate(0.792969 0.203125)"/>
</clipPath>
<clipPath id="clip1_464_1144">
<rect width="179.99" height="178.84" fill="white" transform="translate(0.792969 0.203125)"/>
</clipPath>
</defs>
</svg>
