<svg width="147" height="48" viewBox="0 0 147 48" fill="none" xmlns="http://www.w3.org/2000/svg">
<path fill-rule="evenodd" clip-rule="evenodd" d="M25.7551 17.514C25.7551 16.6028 25.7551 15.6919 25.7551 14.7807C25.7551 14.7807 17.3265 4.53912 8.44234 9.08565C-0.432379 13.6416 -1.34341 24.1206 6.84795 30.9545C15.0487 37.7885 22.5663 46.2076 22.5663 46.2076C22.5663 46.2076 27.1219 40.9682 25.2996 36.8678C23.4772 32.7674 11.8594 27.7557 9.80923 20.9313C7.75897 14.0972 15.732 6.80741 25.7458 17.514C25.749 17.514 25.7519 17.514 25.7551 17.514Z" fill="#51C9A3"/>
<path fill-rule="evenodd" clip-rule="evenodd" d="M28.3945 17.5136C28.3945 16.6024 28.3945 15.6915 28.3945 14.7803C28.3945 14.7803 36.8233 4.52924 45.698 9.08518C54.5822 13.6412 55.4931 24.1198 47.2924 30.9443C39.0915 37.7782 31.574 46.1974 31.574 46.1974C31.574 46.1974 27.0183 40.958 28.8407 36.8576C30.663 32.7573 42.2809 27.7456 44.3311 20.921C46.3814 14.0871 38.4082 6.79776 28.3945 17.5043C28.3945 17.5075 28.3945 17.5104 28.3945 17.5136Z" fill="#51C9A3"/>
<path fill-rule="evenodd" clip-rule="evenodd" d="M46.7619 24.3585C46.107 24.3585 45.5377 24.7761 45.3193 25.3646C40.5703 25.3646 35.8214 25.3646 31.0724 25.3646C30.93 25.3646 30.8064 25.4499 30.7589 25.5828C30.5153 26.2473 30.2718 26.9116 30.0281 27.576C29.4017 25.1557 28.7751 22.7353 28.1487 20.3149C28.1108 20.1725 27.9783 20.0681 27.8265 20.0586C27.6746 20.0586 27.5414 20.1537 27.494 20.3056C26.9245 22.2925 26.3549 24.2794 25.7854 26.2663C25.4501 25.5132 25.1146 24.76 24.7793 24.007C24.7223 23.8836 24.5989 23.8078 24.4566 23.8078C24.3237 23.8078 24.2004 23.9029 24.1529 24.0358C23.7258 25.2412 23.2986 26.4463 22.8715 27.6517C22.3273 25.6774 21.7832 23.7034 21.239 21.7291C21.201 21.5868 21.068 21.4821 20.9256 21.4821C20.9224 21.4821 20.9195 21.4821 20.9163 21.4821C20.7739 21.4821 20.641 21.5772 20.5936 21.7101C20.0367 23.3648 19.48 25.0196 18.9231 26.6744C18.3378 25.5259 17.7524 24.3773 17.1671 23.2288C17.1101 23.1149 16.9963 23.0482 16.8635 23.0482C16.7306 23.0482 16.6167 23.1242 16.5598 23.2381C16.2023 23.9879 15.8448 24.7378 15.4873 25.4876C13.4117 25.4876 11.3361 25.4876 9.26059 25.4876C9.08033 24.8327 8.4824 24.3585 7.77995 24.3585C7.0776 24.3585 6.24219 25.051 6.24219 25.8957C6.24219 26.7406 6.93523 27.4335 7.77995 27.4335C8.62477 27.4335 9.1658 26.8831 9.29867 26.1618C11.4343 26.1618 13.5699 26.1618 15.7055 26.1618C15.8385 26.1618 15.9523 26.0858 16.0092 25.9719C16.2971 25.3644 16.5848 24.757 16.8727 24.1495C17.4739 25.3328 18.0749 26.5163 18.6761 27.6995C18.7425 27.823 18.8659 27.8892 18.9988 27.8797C19.1317 27.8702 19.2457 27.7751 19.2931 27.6517C19.8183 26.0887 20.3438 24.5262 20.869 22.9633C21.4131 24.928 21.9572 26.8927 22.5014 28.8575C22.5394 28.9999 22.663 29.0945 22.8148 29.104C22.8148 29.104 22.8146 29.104 22.8241 29.104C22.9665 29.104 23.09 29.0185 23.1375 28.8761C23.5899 27.5978 24.0423 26.3201 24.4947 25.0419C24.8427 25.817 25.1908 26.592 25.5389 27.3671C25.5958 27.5 25.7285 27.5758 25.8708 27.5663C26.0132 27.5568 26.127 27.4621 26.1745 27.3197C26.7155 25.434 27.2567 23.5484 27.7977 21.6627C28.4083 24.0324 29.0191 26.4024 29.6298 28.7721C29.6677 28.9144 29.791 29.019 29.9334 29.0284C30.0758 29.0284 30.218 28.9425 30.2654 28.8097C30.6071 27.8827 30.9488 26.956 31.2906 26.029C35.932 26.029 40.5734 26.029 45.2149 26.029C45.2812 26.8168 45.9456 27.4335 46.7429 27.4335C47.5402 27.4335 48.2806 26.7406 48.2806 25.8957C48.2806 25.051 47.5877 24.3585 46.7429 24.3585C46.7492 24.3585 46.7556 24.3585 46.7619 24.3585ZM7.77995 26.7691C7.30535 26.7691 6.91587 26.3801 6.91587 25.9055C6.91587 25.4309 7.30535 25.0419 7.77995 25.0419C8.25455 25.0419 8.64353 25.4309 8.64353 25.9055C8.64353 26.3801 8.25455 26.7691 7.77995 26.7691ZM46.7619 26.7691C46.2873 26.7691 45.8983 26.3801 45.8983 25.9055C45.8983 25.4309 46.2873 25.0419 46.7619 25.0419C47.2365 25.0419 47.626 25.4309 47.626 25.9055C47.626 26.3801 47.2365 26.7691 46.7619 26.7691Z" fill="#7B3289"/>
<path fill-rule="evenodd" clip-rule="evenodd" d="M43.7919 7.29229C42.3238 7.29229 40.8556 7.29229 39.3875 7.29229C39.3875 5.8242 39.3875 4.35604 39.3875 2.88795C39.3875 2.28048 38.8942 1.78711 38.2867 1.78711C37.5273 1.78711 36.7677 1.78711 36.0084 1.78711C35.4009 1.78711 34.9075 2.28048 34.9075 2.88795C34.9075 4.35604 34.9075 5.8242 34.9075 7.29229C33.4395 7.29229 31.9712 7.29229 30.5032 7.29229C29.8957 7.29229 29.4023 7.78566 29.4023 8.39313C29.4023 9.15247 29.4023 9.91211 29.4023 10.6715C29.4023 11.2789 29.8957 11.7723 30.5032 11.7723C31.9712 11.7723 33.4395 11.7723 34.9075 11.7723C34.9075 13.2403 34.9075 14.7086 34.9075 16.1766C34.9075 16.7841 35.4009 17.2775 36.0084 17.2775C36.7677 17.2775 37.5273 17.2775 38.2867 17.2775C38.8942 17.2775 39.3875 16.7841 39.3875 16.1766C39.3875 14.7086 39.3875 13.2403 39.3875 11.7723C40.8556 11.7723 42.3238 11.7723 43.7919 11.7723C44.3993 11.7723 44.8927 11.2789 44.8927 10.6715C44.8927 9.91211 44.8927 9.15247 44.8927 8.39313C44.8927 7.78566 44.3993 7.29229 43.7919 7.29229Z" fill="#7B3289"/>
<path fill-rule="evenodd" clip-rule="evenodd" d="M97.1982 21.6133C96.5021 21.6133 95.8063 21.6133 95.1102 21.6133C95.452 20.4016 95.7937 19.1896 96.1354 17.9779C96.4897 19.1896 96.8438 20.4016 97.1982 21.6133ZM89.9941 17.6835C87.6433 17.6835 85.2927 17.6835 82.9419 17.6835C82.9419 18.3985 82.9419 19.114 82.9419 19.829C82.9419 21.3382 82.7613 22.4389 82.1823 23.3786C81.9546 23.3786 81.7271 23.3786 81.4994 23.3786C81.4994 24.5302 81.4994 25.6817 81.4994 26.8334C82.3853 26.8334 83.2711 26.8334 84.157 26.8334C84.157 26.2449 84.157 25.6566 84.157 25.0682C85.4858 25.0682 86.8146 25.0682 88.1435 25.0682C88.1435 25.6566 88.1435 26.2449 88.1435 26.8334C89.0326 26.8334 89.9213 26.8334 90.8104 26.8334C90.8104 25.6817 90.8104 24.5302 90.8104 23.3786C90.5382 23.3786 90.2663 23.3786 89.9941 23.3786C89.9941 21.4803 89.9941 19.5818 89.9941 17.6835ZM85.5996 19.3731C86.0932 19.3731 86.5866 19.3731 87.0802 19.3731C87.0802 20.7114 87.0802 22.05 87.0802 23.3883C86.3557 23.3883 85.6314 23.3883 84.9068 23.3883C85.4478 22.591 85.5898 21.2525 85.5898 20.0565C85.5898 19.8288 85.5898 19.6008 85.5898 19.3731C85.593 19.3731 85.5964 19.3731 85.5996 19.3731ZM75.6046 22.0405C77.4586 22.0405 79.3129 22.0405 81.1669 22.0405C81.1669 19.2594 79.5724 17.475 76.8578 17.475C74.1431 17.475 72.7004 19.0219 72.7004 21.4517C72.7004 23.8816 74.513 25.2864 76.867 25.2864C79.2209 25.2864 80.4266 24.6788 80.9297 22.8469C79.9995 22.8469 79.0694 22.8469 78.1392 22.8469C77.9304 23.2836 77.5128 23.4923 77.0477 23.4923C76.2789 23.4923 75.6046 22.9137 75.6046 22.0405ZM78.253 20.5501C77.3703 20.5501 76.4873 20.5501 75.6046 20.5501C75.6046 19.7622 76.0985 19.2686 76.9622 19.2686C77.826 19.2686 78.253 19.8761 78.253 20.5501ZM64.0822 14.9121C62.7501 14.9121 61.418 14.9121 60.0859 14.9121C60.0859 18.2975 60.0859 21.6828 60.0859 25.0682C61.0762 25.0682 62.0667 25.0682 63.057 25.0682C63.057 23.9228 63.057 22.7777 63.057 21.6324C63.057 20.816 62.9429 19.4491 62.848 18.5568C62.8575 18.5568 62.8669 18.5568 62.8764 18.5568C63.487 20.7305 64.0978 22.9043 64.7085 25.0779C65.4741 25.0779 66.2397 25.0779 67.0054 25.0779C67.616 22.9043 68.2263 20.7305 68.837 18.5568C68.8465 18.5568 68.8563 18.5568 68.8658 18.5568C68.7424 19.7243 68.6569 20.8256 68.6569 21.9741C68.6569 23.0087 68.6569 24.0433 68.6569 25.0779C69.6472 25.0779 70.6376 25.0779 71.6279 25.0779C71.6279 21.6925 71.6279 18.3068 71.6279 14.9214C70.2959 14.9214 68.9637 14.9214 67.6317 14.9214C67.04 17.0317 66.4484 19.1422 65.8567 21.2526C65.265 19.1422 64.6738 17.0317 64.0822 14.9214C64.0822 14.9182 64.0822 14.9153 64.0822 14.9121ZM101.432 25.0301C101.536 25.0586 101.64 25.087 101.745 25.1155C102.077 25.182 102.428 25.2009 102.855 25.2009C104.45 25.2009 105.399 24.2329 105.399 21.6607C105.399 21.0501 105.399 20.4396 105.399 19.829C105.946 19.829 106.494 19.829 107.041 19.829C107.041 21.5755 107.041 23.3217 107.041 25.0682C108.012 25.0682 108.984 25.0682 109.955 25.0682C109.955 22.6035 109.955 20.1389 109.955 17.6742C107.531 17.6742 105.108 17.6742 102.684 17.6742C102.684 18.7246 102.684 19.775 102.684 20.8254C102.684 22.6193 102.561 23.1413 101.944 23.1413C101.327 23.1413 101.63 23.1222 101.422 23.0842C101.422 23.7202 101.422 24.356 101.422 24.992C100.229 21.6351 99.0365 18.2783 97.8435 14.9214C96.7235 14.9214 95.604 14.9214 94.4839 14.9214C93.2785 18.3068 92.0729 21.6925 90.8675 25.0779C91.9464 25.0779 93.0252 25.0779 94.1041 25.0779C94.2307 24.6318 94.3573 24.1854 94.4839 23.7393C95.5818 23.7393 96.6793 23.7393 97.7771 23.7393C97.9069 24.1854 98.0369 24.6318 98.1667 25.0779C99.2647 25.0779 100.362 25.0779 101.46 25.0779C101.454 25.0652 101.448 25.0525 101.441 25.0398C101.438 25.0366 101.435 25.0333 101.432 25.0301Z" fill="#51C9A3"/>
<path fill-rule="evenodd" clip-rule="evenodd" d="M142.172 20.5042C143.156 20.5042 144.14 20.5042 145.124 20.5042C144.915 18.3211 143.064 17.4766 141.108 17.4766C139.153 17.4766 136.923 18.929 136.923 21.4537C136.923 23.9786 138.736 25.2884 141.108 25.2884C143.481 25.2884 144.924 24.4529 145.181 22.2129C144.2 22.2129 143.219 22.2129 142.238 22.2129C142.153 22.7919 141.858 23.3137 141.108 23.3137C140.359 23.3137 139.837 22.5829 139.837 21.4723C139.837 20.3618 140.017 19.4508 141.108 19.4508C142.2 19.4508 142.172 19.9253 142.172 20.5042ZM131.01 20.1532C131.01 19.3275 131.01 18.5015 131.01 17.6757C130.038 17.6757 129.067 17.6757 128.096 17.6757C128.096 20.1404 128.096 22.605 128.096 25.0697C129.067 25.0697 130.038 25.0697 131.01 25.0697C131.01 24.1427 131.01 23.216 131.01 22.289C131.728 22.289 132.446 22.289 133.164 22.289C133.164 23.216 133.164 24.1427 133.164 25.0697C134.135 25.0697 135.107 25.0697 136.078 25.0697C136.078 22.605 136.078 20.1404 136.078 17.6757C135.107 17.6757 134.135 17.6757 133.164 17.6757C133.164 18.5015 133.164 19.3275 133.164 20.1532C132.446 20.1532 131.728 20.1532 131.01 20.1532ZM123.444 22.4501C123.681 22.4501 123.919 22.4501 124.156 22.4501C124.156 23.3233 124.156 24.1965 124.156 25.0697C125.09 25.0697 126.023 25.0697 126.957 25.0697C126.957 22.605 126.957 20.1404 126.957 17.6757C125.485 17.6757 124.014 17.6757 122.542 17.6757C120.388 17.6757 119.334 18.5494 119.334 20.0585C119.334 21.5677 119.876 21.805 120.986 22.2036C120.35 23.1591 119.714 24.1142 119.078 25.0697C120.043 25.0697 121.009 25.0697 121.974 25.0697C122.458 24.1965 122.942 23.3233 123.426 22.4501C123.432 22.4501 123.438 22.4501 123.444 22.4501ZM124.156 19.3751C124.156 19.837 124.156 20.2986 124.156 20.7605C123.824 20.7605 123.492 20.7605 123.16 20.7605C122.448 20.7605 122.135 20.6183 122.135 20.0678C122.135 19.5172 122.524 19.3751 123.226 19.3751C123.536 19.3751 123.846 19.3751 124.156 19.3751ZM113.887 20.2767C113.887 19.4098 113.887 18.5427 113.887 17.6757C112.953 17.6757 112.019 17.6757 111.086 17.6757C111.086 20.1404 111.086 22.605 111.086 25.0697C112.557 25.0697 114.029 25.0697 115.5 25.0697C117.655 25.0697 118.708 24.1965 118.708 22.6874C118.708 21.1782 117.665 20.2767 115.519 20.2767C114.978 20.2767 114.437 20.2767 113.896 20.2767C113.893 20.2767 113.89 20.2767 113.887 20.2767ZM113.877 23.3806C113.877 22.9092 113.877 22.4377 113.877 21.9663C114.187 21.9663 114.497 21.9663 114.807 21.9663C115.519 21.9663 115.899 22.1274 115.899 22.6874C115.899 23.2475 115.509 23.3806 114.807 23.3806C114.497 23.3806 114.187 23.3806 113.877 23.3806Z" fill="#51C9A3"/>
<path fill-rule="evenodd" clip-rule="evenodd" d="M110.783 34.8554C110.783 34.1023 110.783 33.3491 110.783 32.5961C109.812 32.5961 108.84 32.5961 107.869 32.5961C107.869 35.0608 107.869 37.5258 107.869 39.9905C108.84 39.9905 109.812 39.9905 110.783 39.9905C110.783 39.2977 110.783 38.6047 110.783 37.9119C110.963 37.7283 111.143 37.5448 111.324 37.3612C111.846 38.2344 112.368 39.1075 112.89 39.9808C114.058 39.9808 115.225 39.9808 116.392 39.9808C115.37 38.4716 114.348 36.9626 113.326 35.4534C114.231 34.4979 115.136 33.5423 116.041 32.5868C114.909 32.5868 113.776 32.5868 112.643 32.5868C112.023 33.3399 111.403 34.0926 110.783 34.8456C110.783 34.8488 110.783 34.8522 110.783 34.8554ZM101.319 36.6494C101.319 35.2984 101.319 33.9471 101.319 32.5961C100.386 32.5961 99.4525 32.5961 98.5191 32.5961C98.5191 35.0608 98.5191 37.5258 98.5191 39.9905C99.4905 39.9905 100.462 39.9905 101.434 39.9905C102.269 38.687 103.104 37.3833 103.939 36.0797C103.939 37.3833 103.939 38.687 103.939 39.9905C104.872 39.9905 105.806 39.9905 106.739 39.9905C106.739 37.5258 106.739 35.0608 106.739 32.5961C105.765 32.5961 104.79 32.5961 103.816 32.5961C102.984 33.9471 102.151 35.2984 101.319 36.6494ZM92.312 35.0643C92.312 34.2385 92.312 33.4126 92.312 32.5868C91.3407 32.5868 90.3693 32.5868 89.398 32.5868C89.398 35.0515 89.398 37.5161 89.398 39.9808C90.3693 39.9808 91.3407 39.9808 92.312 39.9808C92.312 39.0538 92.312 38.1266 92.312 37.1996C93.0302 37.1996 93.7481 37.1996 94.4663 37.1996C94.4663 38.1266 94.4663 39.0538 94.4663 39.9808C95.4376 39.9808 96.4089 39.9808 97.3802 39.9808C97.3802 37.5161 97.3802 35.0515 97.3802 32.5868C96.4089 32.5868 95.4376 32.5868 94.4663 32.5868C94.4663 33.4126 94.4663 34.2385 94.4663 35.0643C93.7481 35.0643 93.0302 35.0643 92.312 35.0643ZM82.8486 36.6494C82.8486 35.2984 82.8486 33.9471 82.8486 32.5961C81.9153 32.5961 80.9818 32.5961 80.0485 32.5961C80.0485 35.0608 80.0485 37.5258 80.0485 39.9905C81.0198 39.9905 81.9911 39.9905 82.9624 39.9905C83.7977 38.687 84.6329 37.3833 85.4682 36.0797C85.4682 37.3833 85.4682 38.687 85.4682 39.9905C86.4015 39.9905 87.3351 39.9905 88.2684 39.9905C88.2684 37.5258 88.2684 35.0608 88.2684 32.5961C87.2939 32.5961 86.3197 32.5961 85.3452 32.5961C84.5131 33.9471 83.6808 35.2984 82.8486 36.6494ZM70.405 39.9524C70.5063 39.9809 70.6074 40.0094 70.7087 40.0379C71.0409 40.1044 71.4015 40.1233 71.8193 40.1233C73.4138 40.1233 74.3631 39.1548 74.3631 36.5826C74.3631 35.972 74.3631 35.3615 74.3631 34.7509C74.9073 34.7509 75.4514 34.7509 75.9956 34.7509C75.9956 36.4973 75.9956 38.2441 75.9956 39.9905C76.9669 39.9905 77.9383 39.9905 78.9095 39.9905C78.9095 37.5258 78.9095 35.0608 78.9095 32.5961C76.4861 32.5961 74.0626 32.5961 71.6391 32.5961C71.6391 33.6465 71.6391 34.6974 71.6391 35.7478C71.6391 37.5417 71.5155 38.0637 70.8986 38.0637C70.2816 38.0637 70.5855 38.0446 70.3767 38.0066C70.3767 38.6488 70.3767 39.2911 70.3767 39.9334C69.0321 37.8452 67.6875 35.7573 66.3429 33.6691C67.5705 32.3941 68.7981 31.1188 70.0257 29.8438C68.7317 29.8438 67.4372 29.8438 66.1432 29.8438C65.1782 30.9385 64.2133 32.033 63.2483 33.1277C63.2483 32.033 63.2483 30.9385 63.2483 29.8438C62.1473 29.8438 61.0464 29.8438 59.9453 29.8438C59.9453 33.2291 59.9453 36.6144 59.9453 39.9998C61.0464 39.9998 62.1473 39.9998 63.2483 39.9998C63.2483 38.9272 63.2483 37.8548 63.2483 36.7822C63.5078 36.5038 63.767 36.2254 64.0265 35.9469C64.8333 37.2948 65.64 38.6427 66.4469 39.9905C67.7662 39.9905 69.0857 39.9905 70.405 39.9905C70.3955 39.9778 70.3862 39.9651 70.3767 39.9524C70.3862 39.9524 70.3955 39.9524 70.405 39.9524Z" fill="#51C9A3"/>
</svg>
