<svg width="40" height="40" viewBox="0 0 40 40" fill="none" xmlns="http://www.w3.org/2000/svg">
<path d="M38.0926 29.102L32.6524 23.6625C30.7093 21.7198 27.4064 22.497 26.6292 25.0225C26.0464 26.7709 24.1033 27.7422 22.3547 27.3536C18.4688 26.3824 13.2228 21.3313 12.2513 17.2517C11.6684 15.5032 12.8342 13.5605 14.5828 12.9778C17.1087 12.2007 17.8859 8.89817 15.9429 6.9555L10.5026 1.516C8.94825 0.156125 6.61669 0.156125 5.25662 1.516L1.565 5.2071C-2.12662 9.09245 1.95359 19.3886 11.0855 28.5193C20.2174 37.6497 30.5151 41.9239 34.4011 38.0382L38.0926 34.3473C39.4529 32.793 39.4529 30.4619 38.0926 29.102Z" fill="black"/>
</svg>
