<svg width="370" height="49" viewBox="0 0 370 49" fill="none" xmlns="http://www.w3.org/2000/svg">
<path d="M319.518 28.3672C318.449 28.3672 317.609 27.5277 317.609 26.4589C317.609 25.034 317.609 23.6086 317.609 22.1836C317.609 21.1149 318.449 20.2754 319.518 20.2754C320.587 20.2754 321.426 21.1149 321.426 22.1836C321.426 23.6086 321.426 25.034 321.426 26.4589C321.426 27.5277 320.587 28.3672 319.518 28.3672Z" fill="#51C9A3"/>
<path d="M313.528 18.9395C313.528 17.8855 312.673 17.0312 311.619 17.0312C310.565 17.0312 309.711 17.8855 309.711 18.9395C309.711 22.5274 309.711 26.1156 309.711 29.7034C309.711 30.7574 310.565 31.6117 311.619 31.6117C312.673 31.6117 313.528 30.7574 313.528 29.7034C313.528 26.1156 313.528 22.5274 313.528 18.9395Z" fill="#51C9A3"/>
<path d="M303.678 29.0919C302.609 29.0919 301.77 28.2524 301.77 27.1837C301.77 25.288 301.77 23.3919 301.77 21.4961C301.77 20.4274 302.609 19.5879 303.678 19.5879C304.746 19.5879 305.586 20.4274 305.586 21.4961C305.586 23.3919 305.586 25.288 305.586 27.1837C305.586 28.2524 304.746 29.0919 303.678 29.0919Z" fill="#51C9A3"/>
<path d="M297.684 11.6114C297.684 10.5574 296.831 9.70312 295.776 9.70312C294.722 9.70312 293.867 10.5574 293.867 11.6114C293.867 20.1103 293.867 28.6096 293.867 37.1085C293.867 38.1626 294.722 39.0168 295.776 39.0168C296.831 39.0168 297.684 38.1626 297.684 37.1085C297.684 28.6096 297.684 20.1103 297.684 11.6114Z" fill="#51C9A3"/>
<path d="M287.838 32.719C286.77 32.719 285.93 31.8796 285.93 30.8108C285.93 26.4977 285.93 22.1842 285.93 17.8711C285.93 16.8024 286.77 15.9629 287.838 15.9629C288.907 15.9629 289.747 16.8024 289.747 17.8711C289.747 22.1842 289.747 26.4977 289.747 30.8108C289.747 31.8796 288.907 32.719 287.838 32.719Z" fill="#51C9A3"/>
<path d="M279.939 35.7713C278.871 35.7713 278.031 34.9318 278.031 33.863C278.031 27.5143 278.031 21.1657 278.031 14.8169C278.031 13.7482 278.871 12.9082 279.939 12.9082C281.008 12.9082 281.847 13.7482 281.847 14.8169C281.847 21.1657 281.847 27.5143 281.847 33.863C281.847 34.9318 281.008 35.7713 279.939 35.7713Z" fill="#51C9A3"/>
<path d="M272.038 45.925C270.969 45.925 270.129 45.085 270.129 44.0163C270.129 30.8989 270.129 17.7815 270.129 4.66408C270.129 3.59536 270.969 2.75586 272.038 2.75586C273.106 2.75586 273.946 3.59536 273.946 4.66408C273.946 17.7815 273.946 30.8989 273.946 44.0163C273.946 45.085 273.106 45.925 272.038 45.925Z" fill="#51C9A3"/>
<path d="M264.1 33.7107C263.031 33.7107 262.191 32.8713 262.191 31.8025C262.191 26.8151 262.191 21.8273 262.191 16.8399C262.191 15.7711 263.031 14.9316 264.1 14.9316C265.169 14.9316 266.008 15.7711 266.008 16.8399C266.008 21.8273 266.008 26.8151 266.008 31.8025C266.008 32.8713 265.169 33.7107 264.1 33.7107Z" fill="#51C9A3"/>
<path d="M256.196 28.0241C255.129 28.0241 254.289 27.1841 254.289 26.1154C254.289 24.9194 254.289 23.7233 254.289 22.5274C254.289 21.4586 255.129 20.6191 256.196 20.6191C257.265 20.6191 258.105 21.4586 258.105 22.5274C258.105 23.7233 258.105 24.9194 258.105 26.1154C258.105 27.1841 257.265 28.0241 256.196 28.0241Z" fill="#51C9A3"/>
<path d="M248.26 31.5341C247.191 31.5341 246.352 30.6946 246.352 29.6259C246.352 26.1016 246.352 22.5775 246.352 19.0532C246.352 17.9845 247.191 17.1445 248.26 17.1445C249.329 17.1445 250.169 17.9845 250.169 19.0532C250.169 22.5775 250.169 26.1016 250.169 29.6259C250.169 30.6946 249.329 31.5341 248.26 31.5341Z" fill="#51C9A3"/>
<path d="M240.358 33.7107C239.289 33.7107 238.449 32.8713 238.449 31.8025C238.449 26.8151 238.449 21.8273 238.449 16.8399C238.449 15.7711 239.289 14.9316 240.358 14.9316C241.427 14.9316 242.267 15.7711 242.267 16.8399C242.267 21.8273 242.267 26.8151 242.267 31.8025C242.267 32.8713 241.427 33.7107 240.358 33.7107Z" fill="#51C9A3"/>
<path d="M232.455 41.2691C231.386 41.2691 230.547 40.4291 230.547 39.3603C230.547 29.3346 230.547 19.3089 230.547 9.28323C230.547 8.2145 231.386 7.375 232.455 7.375C233.523 7.375 234.363 8.2145 234.363 9.28323C234.363 19.3089 234.363 29.3346 234.363 39.3603C234.363 40.4291 233.523 41.2691 232.455 41.2691Z" fill="#51C9A3"/>
<path d="M224.518 47.6805C223.449 47.6805 222.609 46.841 222.609 45.7723C222.609 31.4844 222.609 17.1961 222.609 2.90823C222.609 1.8395 223.449 1 224.518 1C225.586 1 226.426 1.8395 226.426 2.90823C226.426 17.1961 226.426 31.4844 226.426 45.7723C226.426 46.841 225.586 47.6805 224.518 47.6805Z" fill="#51C9A3"/>
<path d="M216.616 31.9553C215.547 31.9553 214.707 31.1153 214.707 30.0465C214.707 26.2297 214.707 22.4131 214.707 18.5962C214.707 17.5275 215.547 16.6875 216.616 16.6875C217.684 16.6875 218.524 17.5275 218.524 18.5962C218.524 22.4131 218.524 26.2297 218.524 30.0465C218.524 31.1153 217.684 31.9553 216.616 31.9553Z" fill="#51C9A3"/>
<path d="M208.713 33.7107C207.645 33.7107 206.805 32.8713 206.805 31.8025C206.805 26.8151 206.805 21.8273 206.805 16.8399C206.805 15.7711 207.645 14.9316 208.713 14.9316C209.782 14.9316 210.622 15.7711 210.622 16.8399C210.622 21.8273 210.622 26.8151 210.622 31.8025C210.622 32.8713 209.782 33.7107 208.713 33.7107Z" fill="#51C9A3"/>
<path d="M200.776 39.8938C199.707 39.8938 198.867 39.0538 198.867 37.9851C198.867 28.9008 198.867 19.8167 198.867 10.7324C198.867 9.66375 199.707 8.82422 200.776 8.82422C201.845 8.82422 202.684 9.66375 202.684 10.7324C202.684 19.8167 202.684 28.9008 202.684 37.9851C202.684 39.0538 201.845 39.8938 200.776 39.8938Z" fill="#51C9A3"/>
<path d="M192.873 35.7713C191.804 35.7713 190.965 34.9318 190.965 33.863C190.965 27.5143 190.965 21.1657 190.965 14.8169C190.965 13.7482 191.804 12.9082 192.873 12.9082C193.942 12.9082 194.782 13.7482 194.782 14.8169C194.782 21.1657 194.782 27.5143 194.782 33.863C194.782 34.9318 193.942 35.7713 192.873 35.7713Z" fill="#51C9A3"/>
<path d="M184.975 31.3057C183.906 31.3057 183.066 30.4662 183.066 29.3974C183.066 26.0131 183.066 22.6285 183.066 19.2442C183.066 18.1754 183.906 17.3359 184.975 17.3359C186.044 17.3359 186.884 18.1754 186.884 19.2442C186.884 22.6285 186.884 26.0131 186.884 29.3974C186.884 30.4662 186.044 31.3057 184.975 31.3057Z" fill="#51C9A3"/>
<path d="M177.034 32.719C175.965 32.719 175.125 31.8796 175.125 30.8108C175.125 26.4977 175.125 22.1842 175.125 17.8711C175.125 16.8024 175.965 15.9629 177.034 15.9629C178.102 15.9629 178.942 16.8024 178.942 17.8711C178.942 22.1842 178.942 26.4977 178.942 30.8108C178.942 31.8796 178.102 32.719 177.034 32.719Z" fill="#51C9A3"/>
<path d="M169.135 28.0241C168.066 28.0241 167.227 27.1841 167.227 26.1154C167.227 24.9194 167.227 23.7233 167.227 22.5274C167.227 21.4586 168.066 20.6191 169.135 20.6191C170.204 20.6191 171.043 21.4586 171.043 22.5274C171.043 23.7233 171.043 24.9194 171.043 26.1154C171.043 27.1841 170.204 28.0241 169.135 28.0241Z" fill="#51C9A3"/>
<path d="M161.193 32.068C160.125 32.068 159.285 31.228 159.285 30.1593C159.285 26.2788 159.285 22.3981 159.285 18.5176C159.285 17.4489 160.125 16.6094 161.193 16.6094C162.262 16.6094 163.102 17.4489 163.102 18.5176C163.102 22.3981 163.102 26.2788 163.102 30.1593C163.102 31.228 162.262 32.068 161.193 32.068Z" fill="#51C9A3"/>
<path d="M153.295 28.5946C152.227 28.5946 151.387 27.755 151.387 26.6864C151.387 25.1087 151.387 23.5308 151.387 21.9531C151.387 20.8844 152.227 20.0449 153.295 20.0449C154.364 20.0449 155.204 20.8844 155.204 21.9531C155.204 23.5308 155.204 25.1087 155.204 26.6864C155.204 27.755 154.364 28.5946 153.295 28.5946Z" fill="#51C9A3"/>
<path d="M145.392 33.4438C144.323 33.4438 143.484 32.6043 143.484 31.5356C143.484 26.7263 143.484 21.9167 143.484 17.1074C143.484 16.0387 144.323 15.1992 145.392 15.1992C146.461 15.1992 147.3 16.0387 147.3 17.1074C147.3 21.9167 147.3 26.7263 147.3 31.5356C147.3 32.6043 146.461 33.4438 145.392 33.4438Z" fill="#51C9A3"/>
<path d="M137.455 43.4814C136.386 43.4814 135.547 42.6419 135.547 41.5732C135.547 30.097 135.547 18.6207 135.547 7.14455C135.547 6.07582 136.386 5.23633 137.455 5.23633C138.524 5.23633 139.364 6.07582 139.364 7.14455C139.364 18.6207 139.364 30.097 139.364 41.5732C139.364 42.6419 138.524 43.4814 137.455 43.4814Z" fill="#51C9A3"/>
<path d="M129.553 30.4277C128.485 30.4277 127.645 29.5882 127.645 28.5195C127.645 25.7331 127.645 22.9465 127.645 20.1602C127.645 19.0914 128.485 18.252 129.553 18.252C130.622 18.252 131.462 19.0914 131.462 20.1602C131.462 22.9465 131.462 25.7331 131.462 28.5195C131.462 29.5882 130.622 30.4277 129.553 30.4277Z" fill="#51C9A3"/>
<path d="M121.651 32.068C120.582 32.068 119.742 31.228 119.742 30.1593C119.742 26.2788 119.742 22.3981 119.742 18.5176C119.742 17.4489 120.582 16.6094 121.651 16.6094C122.72 16.6094 123.559 17.4489 123.559 18.5176C123.559 22.3981 123.559 26.2788 123.559 30.1593C123.559 31.228 122.72 32.068 121.651 32.068Z" fill="#51C9A3"/>
<path d="M113.713 37.68C112.645 37.68 111.805 36.8405 111.805 35.7718C111.805 28.1507 111.805 20.5293 111.805 12.9082C111.805 11.8395 112.645 11 113.713 11C114.782 11 115.622 11.8395 115.622 12.9082C115.622 20.5293 115.622 28.1507 115.622 35.7718C115.622 36.8405 114.782 37.68 113.713 37.68Z" fill="#51C9A3"/>
<path d="M105.811 33.7107C104.742 33.7107 103.902 32.8713 103.902 31.8025C103.902 26.8151 103.902 21.8273 103.902 16.8399C103.902 15.7711 104.742 14.9316 105.811 14.9316C106.879 14.9316 107.719 15.7711 107.719 16.8399C107.719 21.8273 107.719 26.8151 107.719 31.8025C107.719 32.8713 106.879 33.7107 105.811 33.7107Z" fill="#51C9A3"/>
<path d="M97.9082 38.7098C96.8395 38.7098 96 37.8703 96 36.8015C96 28.4934 96 20.1851 96 11.877C96 10.8082 96.8395 9.96875 97.9082 9.96875C98.977 9.96875 99.8169 10.8082 99.8169 11.877C99.8169 20.1851 99.8169 28.4934 99.8169 36.8015C99.8169 37.8703 98.977 38.7098 97.9082 38.7098Z" fill="#51C9A3"/>
<path d="M89.9707 47.4521C88.902 47.4521 88.0625 46.6126 88.0625 45.5438C88.0625 31.3959 88.0625 17.2476 88.0625 3.09963C88.0625 2.03089 88.902 1.19141 89.9707 1.19141C91.0395 1.19141 91.8794 2.03089 91.8794 3.09963C91.8794 17.2476 91.8794 31.3959 91.8794 45.5438C91.8794 46.6126 91.0395 47.4521 89.9707 47.4521Z" fill="#51C9A3"/>
<path d="M82.0689 40.5038C81.0001 40.5038 80.1602 39.6642 80.1602 38.5956C80.1602 29.1042 80.1602 19.6125 80.1602 10.1211C80.1602 9.05239 81.0001 8.21289 82.0689 8.21289C83.1375 8.21289 83.9771 9.05239 83.9771 10.1211C83.9771 19.6125 83.9771 29.1042 83.9771 38.5956C83.9771 39.6642 83.1375 40.5038 82.0689 40.5038Z" fill="#51C9A3"/>
<path d="M74.1699 29.0919C73.1012 29.0919 72.2617 28.2524 72.2617 27.1837C72.2617 25.288 72.2617 23.3919 72.2617 21.4961C72.2617 20.4274 73.1012 19.5879 74.1699 19.5879C75.2387 19.5879 76.0787 20.4274 76.0787 21.4961C76.0787 23.3919 76.0787 25.288 76.0787 27.1837C76.0787 28.2524 75.2387 29.0919 74.1699 29.0919Z" fill="#51C9A3"/>
<path d="M66.2285 36.2305C65.1598 36.2305 64.3203 35.3905 64.3203 34.3218C64.3203 27.6677 64.3203 21.014 64.3203 14.3599C64.3203 13.2911 65.1598 12.4512 66.2285 12.4512C67.2973 12.4512 68.1373 13.2911 68.1373 14.3599C68.1373 21.014 68.1373 27.6677 68.1373 34.3218C68.1373 35.3905 67.2973 36.2305 66.2285 36.2305Z" fill="#51C9A3"/>
<path d="M58.3301 33.4057C57.2614 33.4057 56.4219 32.5658 56.4219 31.497C56.4219 26.7259 56.4219 21.9547 56.4219 17.1836C56.4219 16.1149 57.2614 15.2754 58.3301 15.2754C59.3988 15.2754 60.2388 16.1149 60.2388 17.1836C60.2388 21.9547 60.2388 26.7259 60.2388 31.497C60.2388 32.5658 59.3988 33.4057 58.3301 33.4057Z" fill="#51C9A3"/>
<path d="M50.3892 42.0309C49.3204 42.0309 48.4805 41.1913 48.4805 40.1227C48.4805 29.6008 48.4805 19.0786 48.4805 8.55666C48.4805 7.48793 49.3204 6.64844 50.3892 6.64844C51.4578 6.64844 52.2974 7.48793 52.2974 8.55666C52.2974 19.0786 52.2974 29.6008 52.2974 40.1227C52.2974 41.1913 51.4578 42.0309 50.3892 42.0309Z" fill="#51C9A3"/>
<path d="M42.4903 37.68C41.4215 37.68 40.582 36.8405 40.582 35.7718C40.582 28.1507 40.582 20.5293 40.582 12.9082C40.582 11.8395 41.4215 11 42.4903 11C43.559 11 44.399 11.8395 44.399 12.9082C44.399 20.5293 44.399 28.1507 44.399 35.7718C44.399 36.8405 43.559 37.68 42.4903 37.68Z" fill="#51C9A3"/>
<path d="M34.5879 28.0241C33.5192 28.0241 32.6797 27.1841 32.6797 26.1154C32.6797 24.9194 32.6797 23.7233 32.6797 22.5274C32.6797 21.4586 33.5192 20.6191 34.5879 20.6191C35.6567 20.6191 36.4966 21.4586 36.4966 22.5274C36.4966 23.7233 36.4966 24.9194 36.4966 26.1154C36.4966 27.1841 35.6567 28.0241 34.5879 28.0241Z" fill="#51C9A3"/>
<path d="M26.6504 30.1983C25.5817 30.1983 24.7422 29.3588 24.7422 28.2901C24.7422 25.6564 24.7422 23.0224 24.7422 20.3887C24.7422 19.32 25.5817 18.4805 26.6504 18.4805C27.7192 18.4805 28.5591 19.32 28.5591 20.3887C28.5591 23.0224 28.5591 25.6564 28.5591 28.2901C28.5591 29.3588 27.7192 30.1983 26.6504 30.1983Z" fill="#51C9A3"/>
<path d="M18.7486 36.2305C17.6798 36.2305 16.8398 35.3905 16.8398 34.3218C16.8398 27.6677 16.8398 21.014 16.8398 14.3599C16.8398 13.2911 17.6798 12.4512 18.7486 12.4512C19.8173 12.4512 20.6568 13.2911 20.6568 14.3599C20.6568 21.014 20.6568 27.6677 20.6568 34.3218C20.6568 35.3905 19.8173 36.2305 18.7486 36.2305Z" fill="#51C9A3"/>
<path d="M10.8457 28.0241C9.777 28.0241 8.9375 27.1841 8.9375 26.1154C8.9375 24.9194 8.9375 23.7233 8.9375 22.5274C8.9375 21.4586 9.777 20.6191 10.8457 20.6191C11.9144 20.6191 12.7544 21.4586 12.7544 22.5274C12.7544 23.7233 12.7544 24.9194 12.7544 26.1154C12.7544 27.1841 11.9144 28.0241 10.8457 28.0241Z" fill="#51C9A3"/>
<path d="M4.81694 20.1992C4.81694 19.1452 3.96223 18.291 2.90823 18.291C1.85422 18.291 1 19.1452 1 20.1992C1 22.9728 1 25.7469 1 28.5204C1 29.5745 1.85422 30.4287 2.90823 30.4287C3.96223 30.4287 4.81694 29.5745 4.81694 28.5204C4.81694 25.7469 4.81694 22.9728 4.81694 20.1992Z" fill="#51C9A3"/>
<path d="M367.002 29.0919C365.933 29.0919 365.094 28.2524 365.094 27.1837C365.094 25.288 365.094 23.3919 365.094 21.4961C365.094 20.4274 365.933 19.5879 367.002 19.5879C368.071 19.5879 368.91 20.4274 368.91 21.4961C368.91 23.3919 368.91 25.288 368.91 27.1837C368.91 28.2524 368.071 29.0919 367.002 29.0919Z" fill="#51C9A3"/>
<path d="M325.512 26.1158C325.512 27.1699 326.367 28.0241 327.42 28.0241C328.475 28.0241 329.329 27.1699 329.329 26.1158C329.329 24.9199 329.329 23.7238 329.329 22.5279C329.329 21.4738 328.475 20.6191 327.42 20.6191C326.367 20.6191 325.512 21.4738 325.512 22.5279C325.512 23.7238 325.512 24.9199 325.512 26.1158Z" fill="#51C9A3"/>
<path d="M335.322 32.4887C336.391 32.4887 337.231 31.6492 337.231 30.5805C337.231 26.4073 337.231 22.2337 337.231 18.0606C337.231 16.9918 336.391 16.1523 335.322 16.1523C334.254 16.1523 333.414 16.9918 333.414 18.0606C333.414 22.2337 333.414 26.4073 333.414 30.5805C333.414 31.6492 334.254 32.4887 335.322 32.4887Z" fill="#51C9A3"/>
<path d="M341.352 26.1158C341.352 27.1699 342.207 28.0241 343.26 28.0241C344.314 28.0241 345.169 27.1699 345.169 26.1158C345.169 24.9199 345.169 23.7238 345.169 22.5279C345.169 21.4738 344.314 20.6191 343.26 20.6191C342.207 20.6191 341.352 21.4738 341.352 22.5279C341.352 23.7238 341.352 24.9199 341.352 26.1158Z" fill="#51C9A3"/>
<path d="M351.163 29.9699C352.231 29.9699 353.071 29.1299 353.071 28.0612C353.071 25.5675 353.071 23.0738 353.071 20.5801C353.071 19.5114 352.231 18.6719 351.163 18.6719C350.094 18.6719 349.254 19.5114 349.254 20.5801C349.254 23.0738 349.254 25.5675 349.254 28.0612C349.254 29.1299 350.094 29.9699 351.163 29.9699Z" fill="#51C9A3"/>
<path d="M357.152 24.8548C357.152 25.9088 358.006 26.7635 359.061 26.7635C360.114 26.7635 360.969 25.9088 360.969 24.8548C360.969 24.5112 360.969 24.1678 360.969 23.8242C360.969 22.7703 360.114 21.916 359.061 21.916C358.006 21.916 357.152 22.7703 357.152 23.8242C357.152 24.1678 357.152 24.5112 357.152 24.8548Z" fill="#51C9A3"/>
</svg>
