<svg width="25" height="21" viewBox="0 0 25 21" fill="none" xmlns="http://www.w3.org/2000/svg">
<path fill-rule="evenodd" clip-rule="evenodd" d="M22.1967 0.298583C22.492 0.174314 22.8154 0.131425 23.133 0.174414C23.4506 0.217503 23.7508 0.344871 24.0025 0.543321C24.2542 0.741772 24.4481 1.00401 24.5639 1.30283C24.6798 1.60166 24.7135 1.92608 24.6615 2.2423L21.9505 18.6868C21.6874 20.273 19.9471 21.1827 18.4923 20.3926C17.2754 19.7315 15.4681 18.7131 13.8424 17.6503C13.0295 17.1185 10.5396 15.4151 10.8457 14.203C11.1086 13.1666 15.2923 9.27214 17.683 6.95672C18.6214 6.04704 18.1934 5.52228 17.0854 6.35907C14.3325 8.43655 9.91559 11.596 8.45496 12.4852C7.16628 13.2694 6.49455 13.4033 5.69125 13.2694C4.22571 13.0256 2.86664 12.6478 1.75735 12.1876C0.258387 11.5661 0.331298 9.50528 1.75616 8.90513L22.1967 0.298583Z" fill="white"/>
</svg>
