<svg width="61" height="61" viewBox="0 0 61 61" fill="none" xmlns="http://www.w3.org/2000/svg">
<path fill-rule="evenodd" clip-rule="evenodd" d="M0.988281 30.1552C0.988281 54.856 6.2824 60.1502 30.9833 60.1502C55.6842 60.1502 60.9783 54.856 60.9783 30.1552C60.9783 5.45428 55.6842 0.160156 30.9833 0.160156C6.2824 0.160156 0.988281 5.45428 0.988281 30.1552ZM30.9833 17.6572C32.3638 17.6572 33.4829 18.7763 33.4829 20.1567V35.1543C33.4829 36.5346 32.3638 37.6539 30.9833 37.6539C29.6028 37.6539 28.4837 36.5346 28.4837 35.1543V20.1567C28.4837 18.7764 29.6028 17.6572 30.9833 17.6572ZM30.9833 40.1535C29.6028 40.1535 28.4837 41.2726 28.4837 42.6531C28.4837 44.0333 29.6028 45.1527 30.9833 45.1527C32.3638 45.1527 33.4829 44.0333 33.4829 42.6531C33.4829 41.2726 32.3638 40.1535 30.9833 40.1535Z" fill="#7B3289"/>
</svg>
