<svg width="20" height="20" viewBox="0 0 20 20" fill="none" xmlns="http://www.w3.org/2000/svg">
<g clip-path="url(#clip0_463_1106)">
<path d="M12.5882 10.9555C12.2077 11.1109 11.9656 11.7053 11.7188 12.0091C11.5931 12.1646 11.4423 12.1896 11.2479 12.1115C9.82245 11.5428 8.72972 10.5916 7.94322 9.28008C7.80965 9.07623 7.83384 8.91537 7.9947 8.72632C8.23215 8.44679 8.53057 8.12887 8.59455 7.75157C8.73752 6.91747 7.64719 4.33062 6.20695 5.50293C2.06269 8.87948 13.12 17.8358 15.1156 12.9917C15.2062 12.7707 15.2523 12.5239 15.2015 12.2903C15.0648 11.667 13.2731 10.6743 12.5882 10.9555Z" fill="white"/>
<path fill-rule="evenodd" clip-rule="evenodd" d="M10.1914 -0.251953C4.65771 -0.251953 0.156478 4.24923 0.156478 9.78305C0.156478 11.7295 0.709499 13.5993 1.75924 15.2215L0.234619 18.5792C0.0939937 18.8894 0.145541 19.2518 0.365786 19.5103C0.535243 19.7079 0.779782 19.818 1.03282 19.818C1.59828 19.818 4.68031 18.8495 5.46451 18.6339C6.91495 19.4095 8.54114 19.818 10.1914 19.818C15.7244 19.818 20.2264 15.3161 20.2264 9.78305C20.2264 4.24923 15.7244 -0.251953 10.1914 -0.251953ZM6.02137 16.9375C7.28356 17.6756 8.72619 18.0654 10.1914 18.0654C14.7583 18.0654 18.4738 14.3499 18.4738 9.78305C18.4738 5.21619 14.7583 1.50072 10.1914 1.50072C5.62467 1.50072 1.9092 5.21619 1.9092 9.78305C1.9092 11.5318 2.44966 13.2048 3.47201 14.6216C3.65556 14.8763 3.68915 15.2098 3.55879 15.4964L2.60353 17.6022L5.34734 16.8493C5.57388 16.7875 5.81832 16.8188 6.02137 16.9375Z" fill="white"/>
</g>
<defs>
<clipPath id="clip0_463_1106">
<rect width="20" height="20" fill="white"/>
</clipPath>
</defs>
</svg>
